
<svg width="40" height="40" viewBox="0 0 40 40" fill="none" xmlns="http://www.w3.org/2000/svg">
<path fill-rule="evenodd" clip-rule="evenodd" d="M4 20C4 11.1634 11.1634 4 20 4C28.8366 4 36 11.1634 36 20C36 28.8366 28.8366 36 20 36C11.1634 36 4 28.8366 4 20ZM21.8286 12.6857C21.8286 13.6956 21.0099 14.5143 20 14.5143C18.9901 14.5143 18.1714 13.6956 18.1714 12.6857C18.1714 11.6758 18.9901 10.8571 20 10.8571C21.0099 10.8571 21.8286 11.6758 21.8286 12.6857ZM20 17.7143C20.7574 17.7143 21.3714 18.3283 21.3714 19.0857V28.2286C21.3714 28.986 20.7574 29.6 20 29.6C19.2426 29.6 18.6286 28.986 18.6286 28.2286V19.0857C18.6286 18.3283 19.2426 17.7143 20 17.7143Z" fill="white"/>
</svg>
