
<svg width="24" height="24" viewBox="0 0 24 24" fill="none" xmlns="http://www.w3.org/2000/svg">
<path d="M12.0001 5C12.7733 5 13.4001 5.6268 13.4001 6.4C13.4001 7.1732 12.7733 7.8 12.0001 7.8C11.2269 7.8 10.6001 7.1732 10.6001 6.4C10.6001 5.6268 11.2269 5 12.0001 5Z" fill="#ABADAE"/>
<path d="M12.0001 10.6C12.7733 10.6 13.4001 11.2268 13.4001 12C13.4001 12.7732 12.7733 13.4 12.0001 13.4C11.2269 13.4 10.6001 12.7732 10.6001 12C10.6001 11.2268 11.2269 10.6 12.0001 10.6Z" fill="#ABADAE"/>
<path d="M12.0001 16.2C12.7733 16.2 13.4001 16.8268 13.4001 17.6C13.4001 18.3732 12.7733 19 12.0001 19C11.2269 19 10.6001 18.3732 10.6001 17.6C10.6001 16.8268 11.2269 16.2 12.0001 16.2Z" fill="#ABADAE"/>
</svg>
