
<svg width="32" height="32" viewBox="0 0 32 32" fill="none" xmlns="http://www.w3.org/2000/svg">
<path d="M15.9999 29.334C17.4666 29.334 18.6666 28.134 18.6666 26.6673H13.3333C13.3333 28.134 14.5199 29.334 15.9999 29.334ZM23.9999 21.334V14.6673C23.9999 10.574 21.8133 7.14732 17.9999 6.24065V5.33398C17.9999 4.22732 17.1066 3.33398 15.9999 3.33398C14.8933 3.33398 13.9999 4.22732 13.9999 5.33398V6.24065C10.1733 7.14732 7.99995 10.5607 7.99995 14.6673V21.334L6.27995 23.054C5.43995 23.894 6.02661 25.334 7.21328 25.334H24.7733C25.9599 25.334 26.5599 23.894 25.7199 23.054L23.9999 21.334Z" fill="#ABADAE"/>
</svg>
