<svg width="32" height="33" viewBox="0 0 32 33" fill="none" xmlns="http://www.w3.org/2000/svg">
<path d="M18.8633 16.7578L23.1003 17.5957C23.2969 17.6346 23.4919 17.522 23.5565 17.3323L24.9494 13.244" stroke="#ABADAE" stroke-linecap="round"/>
<path d="M17.5757 22.4143C16.4125 22.7259 15.1831 22.6857 14.0428 22.2986C12.9025 21.9115 11.9026 21.195 11.1695 20.2397C10.4365 19.2843 10.0032 18.1331 9.92442 16.9315C9.84566 15.7299 10.125 14.5319 10.7271 13.489C11.3292 12.4462 12.227 11.6053 13.307 11.0727C14.387 10.5401 15.6007 10.3397 16.7945 10.4969C17.9884 10.6541 19.1089 11.1617 20.0142 11.9557C20.9196 12.7497 21.5692 13.7943 21.8808 14.9574" stroke="#ABADAE" stroke-linecap="round"/>
</svg>
