<svg width="48" height="48" viewBox="0 0 48 48" fill="none" xmlns="http://www.w3.org/2000/svg">
<path d="M23.9921 4.5C12.3999 4.5 3 11.9577 3 21.1607C3 27.111 6.92715 32.3234 12.8415 35.2827L10.7124 42.9387C10.7124 42.9387 10.6729 43.2957 10.9016 43.4306C11.1303 43.5654 11.4063 43.4623 11.4063 43.4623C12.0687 43.3671 19.0556 38.4244 20.2779 37.5676C21.4844 37.7421 22.7383 37.8294 24.0079 37.8294C35.6001 37.8294 45 30.3717 45 21.1687C45 11.9656 35.5843 4.5 23.9921 4.5Z" fill="black"/>
<path d="M12.3841 26.968C11.7138 26.968 11.1697 26.4444 11.1697 25.8017V18.5583H9.27711C8.62259 18.5583 8.09424 18.0267 8.09424 17.3682C8.09424 16.7098 8.63048 16.1782 9.27711 16.1782H15.4833C16.1378 16.1782 16.6661 16.7098 16.6661 17.3682C16.6661 18.0267 16.1299 18.5583 15.4833 18.5583H13.5907V25.8017C13.5907 26.4364 13.0387 26.968 12.3763 26.968H12.3841ZM23.0064 26.9521C22.5017 26.9521 22.1153 26.7459 21.997 26.4126L21.3977 24.8259H17.7071L17.1078 26.4126C16.9895 26.7459 16.6031 26.9521 16.0984 26.9521C15.8302 26.9521 15.57 26.8966 15.3256 26.7935C14.9943 26.6348 14.671 26.2143 15.0417 25.0639L17.9358 17.392C18.1408 16.805 18.7638 16.202 19.5524 16.1861C20.341 16.1703 20.9718 16.805 21.169 17.392L24.0631 25.0639C24.4337 26.2143 24.1104 26.6507 23.7792 26.7935C23.5426 26.9045 23.2745 26.9521 23.0064 26.9521ZM20.7589 22.6679L19.5524 19.2089L18.3458 22.6679H20.7589ZM26.0109 26.7935C25.38 26.7935 24.8517 26.2936 24.8517 25.6827V17.392C24.8517 16.7177 25.4037 16.1703 26.0897 16.1703C26.7758 16.1703 27.3278 16.7256 27.3278 17.392V24.5482H29.8986C30.5295 24.5482 31.0578 25.048 31.0578 25.6589C31.0578 26.2698 30.5373 26.7697 29.8986 26.7697L26.0109 26.7935ZM31.5231 25.7303V17.4C31.5231 16.7256 32.0751 16.1782 32.7375 16.1782C33.3999 16.1782 33.9519 16.7336 33.9519 17.4V20.0181L37.3428 16.6066C37.7161 16.2311 38.4217 16.264 38.849 16.6939C39.2504 17.0977 39.3548 17.7803 38.9358 18.2092L36.16 20.986L39.1408 24.9528C39.5413 25.4687 39.4442 26.2721 38.9042 26.6507C38.3719 27.0473 37.5899 26.9151 37.2088 26.4126L34.3699 22.6283L33.9519 23.0488V25.7065C33.9519 27.2896 31.5231 27.3506 31.5231 25.7303Z" fill="#FFE812"/>
</svg>
