<svg width="48" height="48" viewBox="0 0 48 48" fill="none" xmlns="http://www.w3.org/2000/svg">
<path d="M45 21.7468C45 12.2369 35.5798 4.49998 23.9998 4.49998C12.4214 4.49998 3 12.2369 3 21.7468C3 30.2725 10.4709 37.4125 20.5626 38.7627C21.2466 38.9118 22.1774 39.219 22.4129 39.8105C22.6246 40.3479 22.5513 41.1896 22.4805 41.7323C22.4805 41.7323 22.2341 43.232 22.181 43.5515C22.0896 44.0888 21.7591 45.6529 23.9998 44.6971C26.2413 43.7413 36.0939 37.4903 40.4996 32.358C43.5431 28.9805 45 25.5529 45 21.7468Z" fill="#2CCF54"/>
<path d="M19.7331 17.1366H18.2601C18.0343 17.1366 17.8507 17.3217 17.8507 17.5492V26.799C17.8507 27.0269 18.0343 27.2117 18.2601 27.2117H19.7331C19.959 27.2117 20.1422 27.0269 20.1422 26.799V17.5492C20.1422 17.3217 19.959 17.1366 19.7331 17.1366Z" fill="white"/>
<path d="M29.8719 17.1366H28.3989C28.1731 17.1366 27.9899 17.3217 27.9899 17.5492V23.0446L23.7967 17.3201C23.7192 17.2025 23.5933 17.1443 23.4561 17.1366H21.9835C21.7577 17.1366 21.5741 17.3217 21.5741 17.5492V26.799C21.5741 27.0269 21.7577 27.2117 21.9835 27.2117H23.4561C23.6824 27.2117 23.8655 27.0269 23.8655 26.799V21.3053L28.064 27.0371C28.1394 27.1451 28.2673 27.2117 28.3989 27.2117H29.8719C30.0982 27.2117 30.2809 27.0269 30.2809 26.799V17.5492C30.2809 17.3217 30.0982 17.1366 29.8719 17.1366Z" fill="white"/>
<path d="M16.1825 24.8955H12.1801V17.5498C12.1801 17.3215 11.9969 17.1364 11.7715 17.1364H10.2981C10.0722 17.1364 9.88904 17.3215 9.88904 17.5498V26.798C9.88904 27.0225 10.0714 27.2119 10.2976 27.2119H16.1825C16.4083 27.2119 16.5907 27.0263 16.5907 26.798V25.309C16.5907 25.0807 16.4083 24.8955 16.1825 24.8955Z" fill="white"/>
<path d="M38.0064 19.4527C38.2323 19.4527 38.4146 19.2679 38.4146 19.0392V17.5502C38.4146 17.3219 38.2323 17.1364 38.0064 17.1364H32.122C31.896 17.1364 31.713 17.3254 31.713 17.5498V26.7984C31.713 27.0223 31.8955 27.2119 32.1212 27.2119H38.0064C38.2323 27.2119 38.4146 27.0263 38.4146 26.7984V25.309C38.4146 25.0811 38.2323 24.8955 38.0064 24.8955H34.0045V23.3321H38.0064C38.2323 23.3321 38.4146 23.1469 38.4146 22.9186V21.4296C38.4146 21.2013 38.2323 21.0157 38.0064 21.0157H34.0045V19.4527H38.0064Z" fill="white"/>
</svg>
