<svg width="40" height="40" viewBox="0 0 40 40" fill="none" xmlns="http://www.w3.org/2000/svg">
<path d="M0 13.7143C0 8.91384 0 6.51361 0.93423 4.68008C1.756 3.06726 3.06726 1.756 4.68008 0.93423C6.51361 0 8.91384 0 13.7143 0H26.2857C31.0862 0 33.4864 0 35.3199 0.93423C36.9327 1.756 38.244 3.06726 39.0658 4.68008C40 6.51361 40 8.91384 40 13.7143V26.2857C40 31.0862 40 33.4864 39.0658 35.3199C38.244 36.9327 36.9327 38.244 35.3199 39.0658C33.4864 40 31.0862 40 26.2857 40H13.7143C8.91384 40 6.51361 40 4.68008 39.0658C3.06726 38.244 1.756 36.9327 0.93423 35.3199C0 33.4864 0 31.0862 0 26.2857V13.7143Z" fill="url(#paint0_linear_175_2352)"/>
<path d="M20 30C27.1008 30 32.8571 25.2031 32.8571 19.2857C32.8571 13.3684 27.1008 8.57143 20 8.57143C12.8992 8.57143 7.14282 13.3684 7.14282 19.2857C7.14282 23.0364 9.45552 26.337 12.9574 28.2512C12.8402 29.2038 12.4878 30.4753 11.4285 31.4286C13.4316 31.068 15.0302 30.3435 16.2243 29.5306C17.4182 29.8358 18.6861 30 20 30Z" fill="white"/>
<defs>
<linearGradient id="paint0_linear_175_2352" x1="20" y1="0" x2="20" y2="40" gradientUnits="userSpaceOnUse">
<stop stop-color="#5AF575"/>
<stop offset="1" stop-color="#13BD2C"/>
</linearGradient>
</defs>
</svg>
