<svg width="40" height="40" viewBox="0 0 40 40" fill="none" xmlns="http://www.w3.org/2000/svg">
<ellipse cx="12.1429" cy="11.4286" rx="12.1429" ry="11.4286" fill="#184AA9"/>
<circle cx="28.5716" cy="28.5714" r="11.4286" fill="#2173F0"/>
<circle cx="20.0001" cy="20" r="18.5714" fill="url(#paint0_linear_175_2347)"/>
<path d="M20.098 10C23.1172 10 27.1426 11.4286 26.1363 13.3333C24.7608 15.9368 22.1108 13.3333 20.098 13.3333C18.0853 13.3333 17.0789 14.2857 17.0789 15.2381C17.0789 16.1905 17.5821 17.1429 20.098 18.0952C22.614 19.0476 27.1426 20.4762 27.1426 24.2857C27.1426 28.0952 23.6203 30 19.0917 30C15.0348 30 12.047 28.0952 13.0534 26.1905C14.2107 24 17.0789 26.6667 19.0917 26.6667C21.1044 26.6667 23.1171 26.1905 23.1171 24.2857C23.1171 22.381 20.098 21.9048 18.0852 20.9524C15.5693 19.7619 13.0534 18.5714 13.0534 15.2381C13.0534 11.9048 17.0789 10 20.098 10Z" fill="white"/>
<defs>
<linearGradient id="paint0_linear_175_2347" x1="5.5557" y1="8.65075" x2="33.4128" y2="31.865" gradientUnits="userSpaceOnUse">
<stop stop-color="#297AC0"/>
<stop offset="1" stop-color="#48B0F9"/>
</linearGradient>
</defs>
</svg>
