<svg width="40" height="40" viewBox="0 0 40 40" fill="none" xmlns="http://www.w3.org/2000/svg">
<path d="M2.5 14.5C2.5 10.2996 2.5 8.19941 3.31745 6.59507C4.0365 5.18386 5.18386 4.0365 6.59507 3.31745C8.19941 2.5 10.2996 2.5 14.5 2.5H25.5C29.7004 2.5 31.8006 2.5 33.4049 3.31745C34.8161 4.0365 35.9635 5.18386 36.6825 6.59507C37.5 8.19941 37.5 10.2996 37.5 14.5V25.5C37.5 29.7004 37.5 31.8006 36.6825 33.4049C35.9635 34.8161 34.8161 35.9635 33.4049 36.6825C31.8006 37.5 29.7004 37.5 25.5 37.5H14.5C10.2996 37.5 8.19941 37.5 6.59507 36.6825C5.18386 35.9635 4.0365 34.8161 3.31745 33.4049C2.5 31.8006 2.5 29.7004 2.5 25.5V14.5Z" fill="url(#paint0_linear_175_2345)"/>
<path fill-rule="evenodd" clip-rule="evenodd" d="M11.5563 13.35C11.5563 12.3593 12.3594 11.5563 13.35 11.5563C21.6377 11.5563 28.3563 18.2748 28.3563 26.5625C28.3563 27.5773 27.5336 28.4 26.5188 28.4H21.8813C20.8664 28.4 20.0438 27.5773 20.0438 26.5625C20.0438 22.8656 17.0469 19.8688 13.35 19.8688C12.3594 19.8688 11.5563 19.0657 11.5563 18.075V13.35Z" fill="white"/>
<defs>
<linearGradient id="paint0_linear_175_2345" x1="37.5" y1="37.5" x2="2.5" y2="2.5" gradientUnits="userSpaceOnUse">
<stop stop-color="#3D35DE"/>
<stop offset="0.265" stop-color="#5137E8"/>
<stop offset="1" stop-color="#793CF8"/>
</linearGradient>
</defs>
</svg>
