
<svg width="22" height="24" viewBox="0 0 22 24" fill="none" xmlns="http://www.w3.org/2000/svg">
<path d="M21.7004 5.91314V9.24722C21.7004 9.24722 20.1208 9.18533 18.951 8.88786C17.3183 8.47181 16.2683 7.8337 16.2683 7.8337C16.2683 7.8337 15.5439 7.37866 15.4853 7.34641V16.1364C15.4853 16.6258 15.3513 17.8484 14.9427 18.8672C14.4093 20.2012 13.5862 21.0764 13.4348 21.2553C13.4348 21.2553 12.4332 22.4384 10.6675 23.2352C9.07604 23.9539 7.67828 23.9357 7.25993 23.9539C7.25993 23.9539 4.84424 24.0496 2.66946 22.6366L2.65861 22.6288C2.429 22.4064 2.21287 22.1717 2.01128 21.9257C1.31728 21.0795 0.891879 20.0789 0.784985 19.7934C0.784799 19.7922 0.784799 19.791 0.784985 19.7898C0.612978 19.2937 0.251601 18.1022 0.300978 16.9482C0.388338 14.9122 1.10458 13.6625 1.29395 13.3494C1.79549 12.4957 2.44779 11.7318 3.22184 11.0919C3.90489 10.5396 4.67911 10.1002 5.51273 9.79172C6.41391 9.42948 7.37891 9.23532 8.356 9.21965V12.5948C8.356 12.5948 6.56865 12.028 5.13833 13.0317C4.13831 13.7743 3.60763 14.4987 3.45136 15.7926C3.44485 16.7449 3.68848 18.0923 5.02493 18.991C5.18084 19.0898 5.33385 19.1775 5.48397 19.2541C5.71745 19.5576 6.00162 19.8221 6.32502 20.0368C7.63053 20.8632 8.72443 20.9209 10.1233 20.3842C11.056 20.0254 11.7582 19.2167 12.0837 18.3206C12.2883 17.7611 12.2856 17.1978 12.2856 16.6154V0.0463867H15.5412C15.6758 0.811389 16.048 1.90039 17.0323 2.97898C17.4272 3.38624 17.8719 3.7463 18.3568 4.05134C18.5001 4.19955 19.2326 4.93231 20.1729 5.38216C20.6592 5.61469 21.1717 5.79285 21.7004 5.91314Z" fill="black"/>
</svg>
