<svg width="66" height="72" viewBox="0 0 66 72" fill="none" xmlns="http://www.w3.org/2000/svg">
<path fill-rule="evenodd" clip-rule="evenodd" d="M65.0323 33.3951C65.0323 12.0937 57.5285 2.32257 32.5161 2.32257C7.50372 2.32257 0 12.0937 0 33.3951C0 48.5547 3.80042 57.8744 15.0074 61.9885V69.1605C15.0074 71.8004 18.3198 73.0062 20.0356 70.991L25.8187 64.1986C27.8972 64.3785 30.1268 64.4677 32.5161 64.4677C57.5285 64.4677 65.0323 54.6966 65.0323 33.3951ZM27.2003 59.2991C28.8584 59.4307 30.6283 59.496 32.5161 59.496C53.6805 59.496 60.0298 51.2883 60.0298 33.3951C60.0298 15.5019 53.6805 7.29418 32.5161 7.29418C11.3518 7.29418 5.00248 15.5019 5.00248 33.3951C5.00248 46.0426 8.17468 53.8512 17.5087 57.3425V67.9677C17.5087 68.894 18.6709 69.3171 19.2729 68.61L27.2003 59.2991Z" fill="#BFC8D0"/>
<path d="M32.516 57.7272C30.6037 57.7272 28.8107 57.6608 27.1311 57.5269L19.1008 66.9948C18.491 67.7139 17.3136 67.2836 17.3136 66.3417V55.5374C7.85841 51.9871 4.64502 44.047 4.64502 31.1862C4.64502 12.9912 11.0768 4.64514 32.516 4.64514C53.9552 4.64514 60.3869 12.9912 60.3869 31.1862C60.3869 49.3811 53.9552 57.7272 32.516 57.7272Z" fill="#9179EE" fill-opacity="0.5"/>
<path fill-rule="evenodd" clip-rule="evenodd" d="M65.0323 31.0725C65.0323 9.77108 57.5285 0 32.5161 0C7.50372 0 0 9.77108 0 31.0725C0 46.2321 3.80042 55.5519 15.0074 59.6659V66.8379C15.0074 69.4778 18.3198 70.6837 20.0356 68.6684L25.8187 61.8761C27.8972 62.0559 30.1268 62.1451 32.5161 62.1451C57.5285 62.1451 65.0323 52.374 65.0323 31.0725ZM27.2003 56.9765C28.8584 57.1082 30.6283 57.1735 32.5161 57.1735C53.6805 57.1735 60.0298 48.9658 60.0298 31.0725C60.0298 13.1793 53.6805 4.97161 32.5161 4.97161C11.3518 4.97161 5.00248 13.1793 5.00248 31.0725C5.00248 43.7201 8.17468 51.5286 17.5087 55.02V65.6451C17.5087 66.5714 18.6709 66.9945 19.2729 66.2874L27.2003 56.9765Z" fill="white"/>
<path d="M22.4445 26.4618L22.4852 26.4393C22.8729 26.2246 23.8438 25.6187 24.5762 24.9479C24.9372 24.6173 25.092 24.1656 25.1282 23.7185C25.1656 23.258 25.0708 22.878 25.0181 22.765C24.989 22.7026 24.891 22.5407 24.7183 22.2832C24.5537 22.0378 24.3402 21.7331 24.1009 21.4009C23.6223 20.7364 23.0479 19.9717 22.5708 19.3674C21.6294 18.1751 20.248 16.7966 19.3538 16.0126C19.1163 15.8043 18.7563 15.7027 18.3278 15.7096C17.9028 15.7164 17.4758 15.8303 17.1789 15.974M22.4445 26.4618L17.1789 15.974M22.4445 26.4618L22.4087 26.4915C21.9165 26.8986 21.1487 28.0504 21.8244 29.4945C22.5176 30.9762 24.0342 33.9347 26.6715 36.1502C29.2828 38.3437 32.0582 39.5095 33.8352 39.8842L33.8862 39.895H33.9384C33.9926 39.895 34.0813 39.9087 34.2586 39.9398L34.2849 39.9444C34.8562 40.0446 35.9421 40.2351 36.8636 39.3169C37.6173 38.5658 38.3052 37.7797 38.5741 37.4578M22.4445 26.4618L38.5741 37.4578M17.1789 15.974C14.7818 17.1336 13.6779 18.3603 12.672 19.5658C12.2516 20.0696 12.1097 20.6622 12.1128 21.2229C12.116 21.7904 12.2685 22.2938 12.397 22.5652L12.4135 22.6L12.4245 22.637C12.817 23.9603 14.1981 26.6811 16.2043 29.6897C18.2035 32.6876 20.7856 35.914 23.5445 38.2624C27.8918 41.9628 32.5297 44.4715 36.2099 46.0547C38.0493 46.8461 39.6459 47.4046 40.8421 47.7645C41.4405 47.9445 41.9361 48.074 42.3098 48.1579C42.7011 48.2459 42.9184 48.2743 42.9844 48.2743C44.1928 48.2743 45.5499 47.514 46.7403 46.4817C47.9218 45.4571 48.829 44.2608 49.1551 43.5629C49.5976 42.6156 49.0491 41.9021 48.7154 41.6613L48.7152 41.6612C47.9846 41.1336 46.3497 39.9622 45.6205 39.4715C44.6963 38.8495 42.7103 37.5703 41.0022 36.9928C39.8256 36.5951 38.8861 37.1503 38.5741 37.4578M17.1789 15.974L38.5741 37.4578M32.4916 12.8117C32.4916 12.4539 32.809 12.113 33.2652 12.113C42.8661 12.113 50.5967 19.431 50.5967 28.3955C50.5967 28.7533 50.2793 29.0942 49.823 29.0942C49.3667 29.0942 49.0493 28.7533 49.0493 28.3955C49.0493 20.1466 41.9536 13.5105 33.2652 13.5105C32.809 13.5105 32.4916 13.1695 32.4916 12.8117ZM32.4916 22.4017C32.4916 22.044 32.809 21.703 33.2652 21.703C37.2387 21.703 40.4073 24.7274 40.4073 28.3955C40.4073 28.7533 40.0899 29.0942 39.6336 29.0942C39.1773 29.0942 38.8599 28.7533 38.8599 28.3955C38.8599 25.443 36.3261 23.1005 33.2652 23.1005C32.809 23.1005 32.4916 22.7595 32.4916 22.4017ZM32.4916 17.6067C32.4916 17.2489 32.809 16.908 33.2652 16.908C40.0524 16.908 45.502 22.0792 45.502 28.3955C45.502 28.7533 45.1846 29.0942 44.7283 29.0942C44.272 29.0942 43.9546 28.7533 43.9546 28.3955C43.9546 22.7948 39.1398 18.3055 33.2652 18.3055C32.809 18.3055 32.4916 17.9645 32.4916 17.6067Z" fill="white" stroke="white" stroke-linecap="round"/>
</svg>
