
<svg width="44" height="44" viewBox="0 0 44 44" fill="none" xmlns="http://www.w3.org/2000/svg">
<path fill-rule="evenodd" clip-rule="evenodd" d="M35.0092 20.1326C34.0341 21.7329 32.4123 22.9591 30.4697 23.5241C30.4208 23.5382 30.3724 23.5531 30.3232 23.5668C30.0231 23.6521 29.7151 23.7041 29.4102 23.7041C28.0642 23.7041 27.3043 22.795 27.7126 21.6735C28.011 20.8533 28.795 20.1607 29.7516 19.8404C31.2344 19.2997 32.2706 18.0663 32.2706 16.6311C32.2706 14.6977 30.3892 13.13 28.069 13.13C25.7485 13.13 23.8675 14.6977 23.8675 16.6311V27.3684C23.8675 29.9503 22.3715 32.215 20.1328 33.4954C18.9126 34.1937 17.4752 34.6042 15.9316 34.6042C11.5554 34.6042 7.99536 31.3583 7.99536 27.3684C7.99536 26.0985 8.3588 24.9057 8.99152 23.8673C9.97096 22.26 11.6025 21.0293 13.557 20.4679C13.5587 20.4674 13.56 20.467 13.5618 20.4665C13.8914 20.364 14.2328 20.3068 14.5698 20.3068C15.922 20.3068 16.6854 21.2203 16.2753 22.3471C15.9976 23.1105 15.2492 23.7679 14.3767 24.1177C14.2728 24.1524 14.1712 24.1916 14.0713 24.2325C12.6853 24.8049 11.7301 25.9921 11.7301 27.3684C11.7301 29.3017 13.6111 30.8695 15.9316 30.8695C18.2522 30.8695 20.1328 29.3017 20.1328 27.3684V16.6311C20.1328 14.0491 21.6288 11.7849 23.8675 10.5041C25.088 9.80577 26.5251 9.39569 28.069 9.39569C32.4448 9.39569 36.0053 12.6416 36.0053 16.6311C36.0053 17.9009 35.6419 19.0942 35.0092 20.1326ZM22 0C9.8494 0 0 9.8494 0 22C0 34.1502 9.8494 44 22 44C34.1497 44 44 34.1502 44 22C44 9.8494 34.1497 0 22 0Z" fill="#07C160"/>
<path fill-rule="evenodd" clip-rule="evenodd" d="M35.0092 20.1326C34.0341 21.7329 32.4123 22.9591 30.4697 23.5241C30.4208 23.5382 30.3724 23.5531 30.3232 23.5668C30.0231 23.6521 29.7151 23.7041 29.4102 23.7041C28.0642 23.7041 27.3043 22.795 27.7126 21.6735C28.011 20.8533 28.795 20.1607 29.7516 19.8404C31.2344 19.2997 32.2706 18.0663 32.2706 16.6311C32.2706 14.6977 30.3892 13.13 28.069 13.13C25.7485 13.13 23.8675 14.6977 23.8675 16.6311V27.3684C23.8675 29.9503 22.3715 32.215 20.1328 33.4954C18.9126 34.1937 17.4752 34.6042 15.9316 34.6042C11.5554 34.6042 7.99536 31.3583 7.99536 27.3684C7.99536 26.0985 8.3588 24.9057 8.99152 23.8673C9.97096 22.26 11.6025 21.0293 13.557 20.4679C13.5587 20.4674 13.56 20.467 13.5618 20.4665C13.8914 20.364 14.2328 20.3068 14.5698 20.3068C15.922 20.3068 16.6854 21.2203 16.2753 22.3471C15.9976 23.1105 15.2492 23.7679 14.3767 24.1177C14.2728 24.1524 14.1712 24.1916 14.0713 24.2325C12.6853 24.8049 11.7301 25.9921 11.7301 27.3684C11.7301 29.3017 13.6111 30.8695 15.9316 30.8695C18.2522 30.8695 20.1328 29.3017 20.1328 27.3684V16.6311C20.1328 14.0491 21.6288 11.7849 23.8675 10.5041C25.088 9.80577 26.5251 9.39569 28.069 9.39569C32.4448 9.39569 36.0053 12.6416 36.0053 16.6311C36.0053 17.9009 35.6419 19.0942 35.0092 20.1326Z" fill="white"/>
</svg>
