<svg width="76" height="76" viewBox="0 0 76 76" fill="none" xmlns="http://www.w3.org/2000/svg">
<path fill-rule="evenodd" clip-rule="evenodd" d="M38 73.625C56.3635 73.625 71.25 58.7385 71.25 40.375C71.25 22.0115 56.3635 7.125 38 7.125C19.6365 7.125 4.75 22.0115 4.75 40.375C4.75 46.3383 6.31987 51.935 9.06888 56.7743L4.75 73.625L22.1228 69.5965C26.8408 72.1654 32.2499 73.625 38 73.625ZM38 68.5096C53.5383 68.5096 66.1346 55.9133 66.1346 40.375C66.1346 24.8367 53.5383 12.2404 38 12.2404C22.4617 12.2404 9.86538 24.8367 9.86538 40.375C9.86538 46.3744 11.7432 51.9352 14.9431 56.5018L12.4231 65.9519L22.0398 63.5477C26.5747 66.6771 32.0734 68.5096 38 68.5096Z" fill="#BFC8D0"/>
<path d="M66.5 38C66.5 53.7401 53.7401 66.5 38 66.5C31.9964 66.5 26.4264 64.6437 21.8326 61.4737L12.0909 63.9091L14.6437 54.3362C11.4022 49.7104 9.5 44.0773 9.5 38C9.5 22.2599 22.2599 9.5 38 9.5C53.7401 9.5 66.5 22.2599 66.5 38Z" fill="url(#paint0_linear_175_2369)"/>
<path fill-rule="evenodd" clip-rule="evenodd" d="M38 71.25C56.3635 71.25 71.25 56.3635 71.25 38C71.25 19.6365 56.3635 4.75 38 4.75C19.6365 4.75 4.75 19.6365 4.75 38C4.75 43.9633 6.31987 49.56 9.06888 54.3993L4.75 71.25L22.1228 67.2215C26.8408 69.7904 32.2499 71.25 38 71.25ZM38 66.1346C53.5383 66.1346 66.1346 53.5383 66.1346 38C66.1346 22.4617 53.5383 9.86538 38 9.86538C22.4617 9.86538 9.86538 22.4617 9.86538 38C9.86538 43.9994 11.7432 49.5602 14.9431 54.1268L12.4231 63.5769L22.0398 61.1727C26.5747 64.3021 32.0734 66.1346 38 66.1346Z" fill="white"/>
<path d="M29.6876 22.5625C28.897 20.9746 27.6843 21.1152 26.4591 21.1152C24.2696 21.1152 20.8555 23.7379 20.8555 28.6189C20.8555 32.6192 22.6182 36.9981 28.558 43.5485C34.2903 49.8702 41.8223 53.1405 48.0752 53.0291C54.3282 52.9178 55.6146 47.5369 55.6146 45.7198C55.6146 44.9144 55.1148 44.5125 54.7705 44.4033C52.6397 43.3807 48.7097 41.4752 47.8155 41.1172C46.9212 40.7592 46.4543 41.2435 46.1641 41.5069C45.3532 42.2797 43.7457 44.5571 43.1953 45.0694C42.645 45.5816 41.8244 45.3224 41.4829 45.1287C40.2264 44.6245 36.8194 43.1091 34.1037 40.4765C30.7451 37.2207 30.548 36.1006 29.9153 35.1035C29.409 34.3058 29.7805 33.8164 29.9659 33.6025C30.6895 32.7676 31.6887 31.4785 32.1368 30.8379C32.5849 30.1973 32.2291 29.2247 32.0157 28.6189C31.0977 26.0137 30.32 23.8328 29.6876 22.5625Z" fill="white"/>
<defs>
<linearGradient id="paint0_linear_175_2369" x1="62.9375" y1="16.625" x2="9.5" y2="66.5" gradientUnits="userSpaceOnUse">
<stop stop-color="#5BD066"/>
<stop offset="1" stop-color="#27B43E"/>
</linearGradient>
</defs>
</svg>
