
<svg width="48" height="50" viewBox="0 0 48 50" fill="none" xmlns="http://www.w3.org/2000/svg">
<path fill-rule="evenodd" clip-rule="evenodd" d="M24 49.5C37.2548 49.5 48 38.9092 48 25.8448C48 12.7804 37.2548 2.18964 24 2.18964C10.7452 2.18964 0 12.7804 0 25.8448C0 30.0873 1.13314 34.069 3.11738 37.5118L0 49.5L12.5398 46.634C15.9452 48.4616 19.8496 49.5 24 49.5ZM24 45.8607C35.2156 45.8607 44.3077 36.8993 44.3077 25.8448C44.3077 14.7903 35.2156 5.82889 24 5.82889C12.7844 5.82889 3.69231 14.7903 3.69231 25.8448C3.69231 30.113 5.04772 34.0691 7.35744 37.3179L5.53846 44.0411L12.4799 42.3307C15.7532 44.557 19.7221 45.8607 24 45.8607Z" fill="#DCDEE0"/>
<path d="M44.5708 24.1552C44.5708 35.3532 35.3607 44.431 23.9994 44.431C19.666 44.431 15.6455 43.1104 12.3297 40.8552L5.29811 42.5878L7.14071 35.7773C4.80099 32.4863 3.42798 28.4788 3.42798 24.1552C3.42798 12.9571 12.6381 3.87933 23.9994 3.87933C35.3607 3.87933 44.5708 12.9571 44.5708 24.1552Z" fill="url(#paint0_linear_1226_18900)"/>
<path fill-rule="evenodd" clip-rule="evenodd" d="M24 47.8103C37.2548 47.8103 48 37.2196 48 24.1552C48 11.0908 37.2548 0.5 24 0.5C10.7452 0.5 0 11.0908 0 24.1552C0 28.3977 1.13314 32.3793 3.11738 35.8222L0 47.8103L12.5398 44.9443C15.9452 46.7719 19.8496 47.8103 24 47.8103ZM24 44.1711C35.2156 44.1711 44.3077 35.2096 44.3077 24.1552C44.3077 13.1007 35.2156 4.13926 24 4.13926C12.7844 4.13926 3.69231 13.1007 3.69231 24.1552C3.69231 28.4233 5.04772 32.3795 7.35744 35.6283L5.53846 42.3514L12.4799 40.641C15.7532 42.8674 19.7221 44.1711 24 44.1711Z" fill="white"/>
<path fill-rule="evenodd" clip-rule="evenodd" d="M15.5933 35.2894C15.7747 35.3947 16.1473 35.3946 17.0019 35.3938C20.6285 35.3908 23.7611 35.38 25.9892 35.38C36.3877 35.38 36.1145 24.8543 31.2525 23.541C31.9646 22.3279 35.2091 20.0492 33.2025 15.3391C31.2181 10.6815 22.6849 11.7385 16.8487 11.7412C14.6892 11.7415 15.0122 13.2757 15.0232 15.6612C15.041 19.4395 15.0264 29.6668 15.0238 34.0879C15.0232 34.9841 15.3045 35.1218 15.5933 35.2894ZM20.0927 31.4321C21.0745 31.4321 23.3905 31.4321 25.3757 31.429C27.6238 31.4257 29.6258 30.4146 29.5757 28.2626C29.539 26.2355 28.1364 25.5702 26.1897 25.3845C24.3354 25.4016 22.2146 25.4016 20.0926 25.4016L20.0927 31.4321ZM20.0927 21.3304C24.004 21.2788 25.513 21.482 27.6485 20.9677C29.1158 20.1668 29.7568 17.1967 27.6567 16.1878C26.1978 15.487 21.8865 15.7268 20.0927 15.7986V21.3304Z" fill="white"/>
<defs>
<linearGradient id="paint0_linear_1226_18900" x1="41.9994" y1="8.9483" x2="3.94822" y2="44.9804" gradientUnits="userSpaceOnUse">
<stop stop-color="#5BD066"/>
<stop offset="1" stop-color="#27B43E"/>
</linearGradient>
</defs>
</svg>
