<svg width="60" height="60" viewBox="0 0 60 60" fill="none" xmlns="http://www.w3.org/2000/svg">
<mask id="mask0_1350_6898" style="mask-type:alpha" maskUnits="userSpaceOnUse" x="0" y="0" width="60" height="60">
<rect width="60" height="60" rx="30" fill="white"/>
</mask>
<g mask="url(#mask0_1350_6898)">
<rect width="60" height="60" rx="30" fill="#DCDEE0"/>
<path d="M18.6452 40.6509C12.766 40.6509 8 45.3057 8 51.0476V54.3421C8 56.4304 9.54961 58.2109 11.6599 58.5474C23.8062 60.4842 36.1938 60.4842 48.3401 58.5474C50.4504 58.2109 52 56.4304 52 54.3421V51.0476C52 45.3057 47.234 40.6509 41.3548 40.6509H40.3872C39.8635 40.6509 39.3431 40.7318 38.8452 40.8906L36.3883 41.6741C32.2373 42.9979 27.7627 42.9979 23.6117 41.6741L21.1548 40.8906C20.6569 40.7318 20.1365 40.6509 19.6128 40.6509H18.6452Z" fill="#FAFCFE"/>
<path d="M30 14C24.1208 14 19.3548 19.1137 19.3548 25.4218C19.3548 31.7299 24.1208 36.8437 30 36.8437C35.8792 36.8437 40.6452 31.7299 40.6452 25.4218C40.6452 19.1137 35.8792 14 30 14Z" fill="#FAFCFE"/>
</g>
</svg>
