<svg width="48" height="48" viewBox="0 0 48 48" fill="none" xmlns="http://www.w3.org/2000/svg">
<path d="M30.9399 32.0252L30.94 32.0254L30.9498 32.0164L33.6147 29.5676L34.3213 32.4811C34.3214 32.4814 34.3214 32.4816 34.3215 32.4819C34.3215 32.4819 34.3215 32.4819 34.3215 32.482C34.5003 33.2259 34.4382 34.0075 34.144 34.7139C33.8507 35.4182 33.3418 36.0117 32.6903 36.4092L27.4028 39.3896C27.2858 39.4555 27.155 39.493 27.0208 39.499C26.8867 39.5051 26.753 39.4795 26.6306 39.4244C26.5081 39.3693 26.4004 39.2863 26.3161 39.1819C26.2317 39.0776 26.1732 38.9549 26.145 38.8238L25.3678 35.1997C27.4164 34.523 29.3111 33.4443 30.9399 32.0252ZM16.0674 18.7561L16.0664 18.7574C14.6913 20.4001 13.6221 22.2745 12.9081 24.2913L9.17683 23.492L9.17663 23.4919C9.04532 23.4638 8.92249 23.4053 8.81805 23.321C8.71361 23.2368 8.6305 23.1292 8.57542 23.0069C8.52033 22.8847 8.4948 22.7512 8.50088 22.6173C8.50696 22.4833 8.54448 22.3527 8.61042 22.236L8.61045 22.2359L11.5936 16.9515L11.5986 16.9426L11.6032 16.9335C11.9623 16.2321 12.5634 15.6841 13.2954 15.3909C14.0274 15.0977 14.8408 15.0791 15.5855 15.3386L15.6088 15.3467L15.6328 15.3525L18.378 16.0145L16.0674 18.7561Z" stroke="#8E9093"/>
<path d="M15.2409 27.7115L15.2413 27.7088C15.6471 24.4552 16.9843 21.3879 19.0921 18.8752C19.0922 18.8751 19.0923 18.875 19.0924 18.8749L23.4346 13.7225C23.4348 13.7224 23.4349 13.7222 23.435 13.722C25.2298 11.6013 27.5876 10.0304 30.2369 9.19037C32.886 8.35034 35.7188 8.27533 38.4087 8.97398C38.5551 9.01267 38.6886 9.08942 38.7956 9.19639C38.9028 9.30345 38.9796 9.43696 39.0182 9.58329C39.7248 12.2722 39.6529 15.1063 38.8109 17.756C37.9689 20.4056 36.3914 22.762 34.2619 24.5508L34.2533 24.558L34.2451 24.5655L29.2839 29.1245C26.7865 31.2888 23.6642 32.6023 20.3696 32.8744L20.3693 32.8744C20.3399 32.8768 20.315 32.878 20.2929 32.878C20.1805 32.878 20.0692 32.8558 19.9654 32.8128C19.8616 32.7699 19.7673 32.7068 19.6879 32.6274L19.6877 32.6273L15.4845 28.4266L15.4845 28.4266C15.3918 28.334 15.3216 28.2213 15.2794 28.0973C15.2372 27.9734 15.224 27.8413 15.2409 27.7115ZM31.5466 19.1082H31.5467C32.2185 19.108 32.8628 18.8412 33.3379 18.3664C33.813 17.8915 34.0801 17.2475 34.0803 16.5759V16.5757C34.0803 16.0748 33.9317 15.5851 33.6532 15.1686C33.3748 14.7521 32.979 14.4276 32.5161 14.2359C32.0531 14.0443 31.5437 13.9942 31.0523 14.0919C30.5609 14.1896 30.1094 14.4307 29.755 14.7849C29.4007 15.139 29.1593 15.5903 29.0615 16.0816C28.9637 16.5729 29.0139 17.0822 29.2057 17.545C29.3975 18.0078 29.7223 18.4033 30.139 18.6815C30.5557 18.9597 31.0455 19.1082 31.5466 19.1082ZM14.7453 27.647L14.7451 27.6469L14.7453 27.647Z" stroke="#8E9093"/>
</svg>
