<svg width="48" height="48" viewBox="0 0 48 48" fill="none" xmlns="http://www.w3.org/2000/svg">
<path fill-rule="evenodd" clip-rule="evenodd" d="M22.0251 10.9557C15.2833 11.5459 10 17.0558 10 23.7657V24.2945C10 33.8047 19.9089 40.2841 28.9654 36.6959L32.8371 35.162C33.1836 35.0247 33.5816 35.125 33.8158 35.4087L36.4945 38.6524C36.7193 38.9245 37.0962 39.0291 37.4348 38.9133C37.7734 38.7974 38 38.4863 38 38.1373V25.2707C38 25.1427 37.9983 25.0152 37.9949 24.888C36.5338 25.4474 34.9241 25.7572 33.2333 25.7572C26.5614 25.7572 21.1527 20.9336 21.1527 14.9833C21.1527 13.5594 21.4624 12.2 22.0251 10.9557Z" fill="#0F0F21"/>
<path fill-rule="evenodd" clip-rule="evenodd" d="M38 10.9052C38 9.87508 37.168 9.03998 36.1417 9.03998C35.1372 9.03998 34.3188 9.83994 34.2844 10.8398L30.0768 13.3737C29.7372 13.0028 29.2498 12.7704 28.7083 12.7704C27.682 12.7704 26.85 13.6055 26.85 14.6356C26.85 15.6658 27.682 16.5009 28.7083 16.5009C29.1964 16.5009 29.6406 16.312 29.9722 16.0031L34.2837 18.4054C34.3045 19.4175 35.1284 20.2314 36.1417 20.2314C37.168 20.2314 38 19.3963 38 18.3662C38 17.336 37.168 16.5009 36.1417 16.5009C35.3761 16.5009 34.7186 16.9656 34.434 17.6294L30.4097 15.387C30.5106 15.1572 30.5667 14.903 30.5667 14.6356C30.5667 14.4189 30.5298 14.2108 30.4621 14.0172L34.4283 11.6287C34.7098 12.2995 35.3709 12.7705 36.1417 12.7705C37.168 12.7705 38 11.9354 38 10.9052Z" fill="#0F0F21"/>
</svg>
