<svg width="40" height="40" viewBox="0 0 40 40" fill="none" xmlns="http://www.w3.org/2000/svg">
<path d="M7.08334 32.5V29.5833C7.08334 26.1316 9.88156 23.3333 13.3333 23.3333H13.9015C14.2089 23.3333 14.5145 23.382 14.8068 23.4774L16.2493 23.9484C18.6865 24.7442 21.3136 24.7442 23.7507 23.9484L25.1932 23.4774C25.4855 23.382 25.7911 23.3333 26.0986 23.3333H26.6667C30.1185 23.3333 32.9167 26.1316 32.9167 29.5833V32.5M13.75 13.75C13.75 10.2982 16.5482 7.5 20 7.5C23.4518 7.5 26.25 10.2982 26.25 13.75C26.25 17.2018 23.4518 20 20 20C16.5482 20 13.75 17.2018 13.75 13.75Z" stroke="#182432" stroke-opacity="0.5" stroke-linecap="round" stroke-linejoin="round"/>
</svg>
