<svg width="48" height="48" viewBox="0 0 48 48" fill="none" xmlns="http://www.w3.org/2000/svg">
<path fill-rule="evenodd" clip-rule="evenodd" d="M24.5 9.13397L36.5 16.0622C36.8094 16.2408 37 16.5709 37 16.9282V30.7846C37 31.1419 36.8094 31.472 36.5 31.6506L24.5 38.5788C24.1906 38.7575 23.8094 38.7575 23.5 38.5788L11.5 31.6506C11.1906 31.472 11 31.1419 11 30.7846V16.9282C11 16.5709 11.1906 16.2408 11.5 16.0622L23.5 9.13397C23.8094 8.95534 24.1906 8.95534 24.5 9.13397ZM23 8.26795C23.6188 7.91068 24.3812 7.91068 25 8.26795L37 15.1962C37.6188 15.5534 38 16.2137 38 16.9282V30.7846C38 31.4991 37.6188 32.1594 37 32.5167L25 39.4449C24.3812 39.8021 23.6188 39.8021 23 39.4449L11 32.5167C10.3812 32.1594 10 31.4991 10 30.7846V16.9282C10 16.2137 10.3812 15.5534 11 15.1962L23 8.26795ZM31 24C31 27.866 27.866 31 24 31C20.134 31 17 27.866 17 24C17 20.134 20.134 17 24 17C27.866 17 31 20.134 31 24ZM32 24C32 28.4183 28.4183 32 24 32C19.5817 32 16 28.4183 16 24C16 19.5817 19.5817 16 24 16C28.4183 16 32 19.5817 32 24Z" fill="#8E9093"/>
</svg>
