<svg width="48" height="48" viewBox="0 0 48 48" fill="none" xmlns="http://www.w3.org/2000/svg">
<path d="M24 27.0731C23.7543 27.073 23.5129 27.0084 23.3 26.8858L10.7002 19.6097C10.0305 19.2229 9.80114 18.3664 10.188 17.6966C10.3108 17.4839 10.4875 17.3072 10.7002 17.1844L23.3 9.9138C23.7335 9.66496 24.2665 9.66496 24.7 9.9138L37.2998 17.1844C37.9695 17.5712 38.1989 18.4278 37.812 19.0975C37.6892 19.3102 37.5125 19.4869 37.2998 19.6097L24.7 26.8858C24.4871 27.0084 24.2457 27.073 24 27.0731Z" stroke="#8E9093"/>
<path d="M37.2998 22.7842L34.5501 21.1975L24.7 26.8857C24.2667 27.1354 23.7333 27.1354 23.3 26.8857L13.4499 21.1975L10.7002 22.7842C10.0305 23.171 9.80114 24.0276 10.188 24.6973C10.3108 24.91 10.4875 25.0867 10.7002 25.2095L23.3 32.4856C23.7333 32.7353 24.2667 32.7353 24.7 32.4856L37.2998 25.2095C37.9695 24.8227 38.1989 23.9662 37.812 23.2964C37.6891 23.0837 37.5125 22.9071 37.2998 22.7842Z" stroke="#8E9093"/>
<path d="M37.2998 28.3842L34.5501 26.7975L24.7 32.4857C24.2667 32.7354 23.7333 32.7354 23.3 32.4857L13.4499 26.7975L10.7002 28.3842C10.0305 28.771 9.80114 29.6276 10.188 30.2973C10.3108 30.51 10.4875 30.6867 10.7002 30.8095L23.3 38.0856C23.7333 38.3353 24.2667 38.3353 24.7 38.0856L37.2998 30.8095C37.9695 30.4227 38.1989 29.5661 37.812 28.8964C37.6892 28.6837 37.5125 28.507 37.2998 28.3842Z" stroke="#8E9093"/>
</svg>
