<svg width="41" height="40" viewBox="0 0 41 40" fill="none" xmlns="http://www.w3.org/2000/svg">
<path d="M7.36575 29.5834V18.9334H31.1655L31.1657 29.5834C31.1657 31.3231 29.7555 32.7334 28.0158 32.7334H10.5157C8.77603 32.7334 7.36575 31.3231 7.36575 29.5834Z" stroke="#858F96" stroke-width="1.2"/>
<path d="M7.36475 18.3333V16.25V14.1667C7.36475 11.8655 8.47024 10 10.5412 10H11.7918V14.1667C11.7918 14.9337 12.3524 16.1719 13.6412 16.1719C14.9301 16.1719 15.4897 14.9337 15.4897 14.1667V10H23.0679V14.1667C23.0679 14.9337 23.589 16.1719 24.943 16.1719C26.297 16.1719 26.8179 14.9337 26.8179 14.1667C26.8179 13.3996 26.8179 10 26.8179 10H28.0678C30.1389 10 31.1408 11.8655 31.1408 14.1667V18.3333" stroke="#858F96" stroke-width="1.2"/>
<path d="M13.6407 15.1979C13.1937 15.1979 12.7657 14.7821 12.7657 14.184V8.05558C12.7657 7.45749 13.1937 7.04169 13.6407 7.04169C14.0878 7.04169 14.5157 7.45749 14.5157 8.05558V14.184C14.5157 14.7821 14.0878 15.1979 13.6407 15.1979ZM24.9428 15.1979C24.4958 15.1979 24.0678 14.7821 24.0678 14.184V8.05558C24.0678 7.45748 24.4958 7.04169 24.9428 7.04169C25.3899 7.04169 25.8178 7.45749 25.8178 8.05558V14.184C25.8178 14.7821 25.3899 15.1979 24.9428 15.1979Z" stroke="#858F96" stroke-width="0.75"/>
</svg>
