<svg width="41" height="40" viewBox="0 0 41 40" fill="none" xmlns="http://www.w3.org/2000/svg">
<circle cx="20.25" cy="20" r="20" fill="#003459"/>
<g clip-path="url(#clip0_34_5972)">
<path d="M25.2643 22.4034L23.0404 24.4482C21.897 25.445 20.5535 26.1857 19.1002 26.6205L19.6902 29.3735C19.7204 29.514 19.7831 29.6455 19.8735 29.7574C19.9638 29.8692 20.0792 29.9582 20.2103 30.0172C20.3414 30.0763 20.4845 30.1037 20.6281 30.0972C20.7717 30.0907 20.9118 30.0505 21.037 29.9799L24.6168 27.9609C25.1207 27.6547 25.5143 27.1965 25.7408 26.6522C25.9673 26.1079 26.0151 25.5057 25.8773 24.9325L25.2643 22.4034ZM15.6659 17.0446L17.5805 14.7713L15.1928 14.1952C14.6123 13.9928 13.9782 14.0073 13.4076 14.236C12.8369 14.4647 12.3683 14.8922 12.0883 15.4395L10.0715 19.0144C10.0008 19.1396 9.96058 19.2797 9.95407 19.4233C9.94755 19.567 9.97492 19.7101 10.034 19.8412C10.093 19.9723 10.1821 20.0877 10.2939 20.178C10.4058 20.2684 10.5374 20.3311 10.678 20.3612L13.4946 20.965C13.9616 19.5316 14.6986 18.2008 15.6659 17.0446ZM24.345 17.0816C24.617 17.0816 24.8828 17.0009 25.1089 16.8498C25.335 16.6988 25.5113 16.484 25.6153 16.2328C25.7194 15.9815 25.7466 15.7051 25.6936 15.4383C25.6405 15.1716 25.5096 14.9266 25.3173 14.7343C25.125 14.542 24.88 14.4111 24.6133 14.358C24.3465 14.3049 24.0701 14.3322 23.8188 14.4362C23.5676 14.5403 23.3528 14.7166 23.2017 14.9427C23.0506 15.1688 22.97 15.4346 22.97 15.7066C22.9701 16.0712 23.115 16.4209 23.3729 16.6787C23.6307 16.9365 23.9804 17.0814 24.345 17.0816Z" fill="#ED1C24"/>
<path d="M29.7234 10.8902C29.682 10.7332 29.5997 10.5899 29.4849 10.4751C29.3701 10.3603 29.2269 10.278 29.0699 10.2367C27.1895 9.74788 25.2092 9.8003 23.3573 10.3879C21.5054 10.9755 19.8571 12.0743 18.6025 13.5578L15.6659 17.0446C14.1988 18.7943 13.2682 20.9304 12.9857 23.1962C12.9676 23.3355 12.9817 23.477 13.0269 23.61C13.0722 23.7429 13.1473 23.8637 13.2466 23.963L16.0884 26.8047C16.1735 26.8899 16.2745 26.9574 16.3857 27.0035C16.4969 27.0496 16.6161 27.0733 16.7365 27.0733C16.7629 27.0733 16.7893 27.072 16.8161 27.0697C19.1168 26.8796 21.297 25.9614 23.0403 24.4482L26.3981 21.3607C27.8869 20.1094 28.9898 18.461 29.5784 16.6074C30.1671 14.7538 30.2173 12.7712 29.7234 10.8902ZM24.3449 17.0815C24.073 17.0815 23.8071 17.0009 23.581 16.8498C23.3549 16.6987 23.1787 16.484 23.0746 16.2327C22.9705 15.9815 22.9433 15.705 22.9964 15.4383C23.0494 15.1716 23.1804 14.9266 23.3727 14.7343C23.565 14.542 23.81 14.411 24.0767 14.358C24.3434 14.3049 24.6199 14.3321 24.8711 14.4362C25.1224 14.5403 25.3371 14.7165 25.4882 14.9426C25.6393 15.1687 25.7199 15.4346 25.7199 15.7065C25.7198 16.0712 25.5749 16.4208 25.3171 16.6787C25.0592 16.9365 24.7096 17.0814 24.3449 17.0815Z" fill="white"/>
</g>
<ellipse cx="24.3251" cy="15.7339" rx="0.976974" ry="0.951923" fill="#003459"/>
<defs>
<clipPath id="clip0_34_5972">
<rect width="22" height="22" fill="white" transform="translate(9.00586 9)"/>
</clipPath>
</defs>
</svg>
