<svg width="19" height="20" viewBox="0 0 19 20" fill="none" xmlns="http://www.w3.org/2000/svg">
<path d="M13.5327 2.08337C12.272 2.08337 11.2501 3.20266 11.2501 4.58337C11.2501 4.80377 11.2761 5.0175 11.325 5.22109C11.2711 5.23329 11.2179 5.25431 11.167 5.28468L9.06968 6.53765L6.40173 8.20738C6.37446 8.22445 6.34896 8.24361 6.32531 8.26457C5.98489 8.04357 5.58752 7.91671 5.16311 7.91671C3.90245 7.91671 2.88049 9.036 2.88049 10.4167C2.88049 11.7974 3.90245 12.9167 5.16311 12.9167C5.82816 12.9167 6.42678 12.6052 6.84398 12.1081L9.07074 13.463L11.3187 14.806C11.2739 15.0014 11.2501 15.206 11.2501 15.4167C11.2501 16.7974 12.272 17.9167 13.5327 17.9167C14.7933 17.9167 15.8153 16.7974 15.8153 15.4167C15.8153 14.036 14.7933 12.9167 13.5327 12.9167C12.875 12.9167 12.2822 13.2214 11.8657 13.7089L9.62308 12.3692L7.38203 11.0056C7.42366 10.8167 7.44572 10.6195 7.44572 10.4167C7.44572 9.96696 7.33728 9.54496 7.14749 9.18034L9.62612 7.62909L11.7136 6.38205C11.7646 6.35158 11.8096 6.31382 11.8483 6.27059C12.2656 6.77011 12.8657 7.08337 13.5327 7.08337C14.7933 7.08337 15.8153 5.96409 15.8153 4.58337C15.8153 3.20266 14.7933 2.08337 13.5327 2.08337Z" fill="#FF3E3E"/>
</svg>
