<svg width="26" height="26" viewBox="0 0 26 26" fill="none" xmlns="http://www.w3.org/2000/svg">
<path fill="#ABADAE" d="M24.5162 20.2146C25.1613 14.5169 25.1613 8.77299 24.5162 3.07528C24.3145 1.29311 22.0786 0.390354 20.5139 1.45929L14.5411 5.53967C12.6584 6.82591 10.3748 7.52049 8.02883 7.52049H2.45549C1.65164 7.52049 1 8.11938 1 8.85814V14.4317C1 15.1705 1.65164 15.7693 2.45549 15.7693L8.02883 15.7693C10.3748 15.7693 12.6584 16.4639 14.5411 17.7502L20.5139 21.8305C22.0786 22.8995 24.3145 21.9967 24.5162 20.2146Z" stroke="#ABADAE" stroke-linecap="round" stroke-linejoin="round"/>
<path fill="#ABADAE" d="M8.02883 19.7189C8.11244 19.4187 8.04037 19.0998 7.83359 18.855C7.6268 18.6102 7.30852 18.4669 6.97131 18.4669L4.06033 18.4669C3.64686 18.4669 3.26887 18.6816 3.08396 19.0215L1.62847 21.6968C1.37991 22.1537 1.54455 22.7092 2.01086 22.9872L5.11682 24.8385C5.41172 25.0142 5.78066 25.0488 6.10804 24.9312C6.43543 24.8137 6.6812 24.5584 6.76834 24.2455L8.02883 19.7189Z" stroke="#ABADAE" stroke-linecap="round" stroke-linejoin="round"/>
</svg>
