<svg width="53" height="52" viewBox="0 0 53 52" fill="none" xmlns="http://www.w3.org/2000/svg">
<path d="M38.5053 31.081L33.2386 35.8225C30.5304 38.1341 27.3487 39.8516 23.9068 40.86L25.3042 47.2437C25.3756 47.5697 25.5242 47.8746 25.7382 48.134C25.9521 48.3933 26.2254 48.5997 26.5358 48.7366C26.8463 48.8735 27.1852 48.937 27.5253 48.9219C27.8655 48.9069 28.1972 48.8138 28.4938 48.6501L36.972 43.9681C38.1652 43.2582 39.0974 42.1955 39.6339 40.9333C40.1704 39.6712 40.2835 38.2748 39.9571 36.9455L38.5053 31.081ZM15.7733 18.6544L20.3078 13.3831L14.6529 12.0471C13.2781 11.5778 11.7763 11.6113 10.4248 12.1417C9.07337 12.672 7.96358 13.6633 7.30044 14.9324L2.52393 23.2223C2.35656 23.5126 2.26132 23.8375 2.24588 24.1705C2.23045 24.5036 2.29526 24.8356 2.43509 25.1396C2.57491 25.4436 2.78582 25.7111 3.05077 25.9206C3.31572 26.13 3.62728 26.2755 3.96027 26.3453L10.6311 27.7454C11.737 24.4215 13.4825 21.3357 15.7733 18.6544ZM36.3282 18.7402C36.9722 18.7402 37.6018 18.5532 38.1373 18.2029C38.6729 17.8525 39.0902 17.3546 39.3367 16.7719C39.5832 16.1893 39.6477 15.5482 39.522 14.9297C39.3964 14.3112 39.0862 13.7431 38.6308 13.2972C38.1754 12.8513 37.5952 12.5476 36.9635 12.4246C36.3318 12.3015 35.677 12.3647 35.082 12.606C34.4869 12.8473 33.9784 13.256 33.6205 13.7804C33.2627 14.3047 33.0717 14.9212 33.0717 15.5518C33.0721 16.3973 33.4152 17.2081 34.0259 17.806C34.6365 18.4039 35.4646 18.7399 36.3282 18.7402Z" fill="#ED1C24"/>
<path d="M49.0659 4.38308C48.968 4.019 48.7731 3.6869 48.5012 3.42067C48.2293 3.15445 47.8901 2.96364 47.5183 2.86773C43.0649 1.73426 38.375 1.85581 33.9891 3.21835C29.6032 4.5809 25.6996 7.129 22.7283 10.5691L15.7734 18.6544C12.299 22.7119 10.0949 27.6653 9.42587 32.9195C9.38296 33.2424 9.41637 33.5706 9.52351 33.8789C9.63066 34.1871 9.80868 34.4672 10.0438 34.6974L16.774 41.2871C16.9755 41.4846 17.2148 41.6412 17.4782 41.7481C17.7415 41.855 18.0238 41.91 18.3089 41.91C18.3714 41.91 18.434 41.9068 18.4976 41.9016C23.9462 41.4608 29.1096 39.3315 33.2384 35.8226L41.1908 28.6631C44.7166 25.7613 47.3286 21.939 48.7227 17.6407C50.1168 13.3425 50.2359 8.74498 49.0659 4.38308ZM36.3281 18.7402C35.6841 18.7402 35.0545 18.5532 34.519 18.2028C33.9834 17.8525 33.5661 17.3545 33.3196 16.7719C33.0731 16.1893 33.0086 15.5482 33.1343 14.9297C33.2599 14.3112 33.5701 13.743 34.0255 13.2971C34.4809 12.8512 35.0612 12.5475 35.6928 12.4245C36.3245 12.3015 36.9793 12.3646 37.5743 12.6059C38.1694 12.8473 38.6779 13.2559 39.0358 13.7803C39.3936 14.3046 39.5846 14.9211 39.5846 15.5517C39.5843 16.3972 39.2411 17.2081 38.6304 17.8059C38.0198 18.4038 37.1917 18.7399 36.3281 18.7402Z" fill="white"/>
<ellipse cx="36.282" cy="15.6155" rx="2.31378" ry="2.2074" fill="white"/>
</svg>
