<svg width="44" height="44" viewBox="0 0 44 44" fill="none" xmlns="http://www.w3.org/2000/svg">
<path d="M12.8333 33C12.5926 33.0001 12.3541 32.9527 12.1317 32.8606C11.9092 32.7685 11.7071 32.6334 11.5368 32.4632C11.3666 32.2929 11.2315 32.0908 11.1394 31.8683C11.0473 31.6459 10.9999 31.4074 11 31.1667V23.8333C11 23.3471 11.1932 22.8808 11.537 22.537C11.8808 22.1932 12.3471 22 12.8333 22C13.3196 22 13.7859 22.1932 14.1297 22.537C14.4735 22.8808 14.6667 23.3471 14.6667 23.8333V31.1667C14.6667 31.4074 14.6194 31.6459 14.5272 31.8683C14.4351 32.0908 14.3001 32.2929 14.1298 32.4632C13.9596 32.6334 13.7575 32.7685 13.535 32.8606C13.3125 32.9527 13.0741 33.0001 12.8333 33ZM22 33C21.7592 33.0001 21.5208 32.9527 21.2983 32.8606C21.0759 32.7685 20.8738 32.6334 20.7035 32.4632C20.5332 32.2929 20.3982 32.0908 20.3061 31.8683C20.214 31.6459 20.1666 31.4074 20.1667 31.1667V12.8333C20.1667 12.3471 20.3598 11.8808 20.7036 11.537C21.0475 11.1932 21.5138 11 22 11C22.4862 11 22.9525 11.1932 23.2964 11.537C23.6402 11.8808 23.8333 12.3471 23.8333 12.8333V31.1667C23.8334 31.4074 23.786 31.6459 23.6939 31.8683C23.6018 32.0908 23.4668 32.2929 23.2965 32.4632C23.1262 32.6334 22.9241 32.7685 22.7017 32.8606C22.4792 32.9527 22.2408 33.0001 22 33ZM31.1667 33C30.9259 33.0001 30.6875 32.9527 30.465 32.8606C30.2425 32.7685 30.0404 32.6334 29.8702 32.4632C29.6999 32.2929 29.5649 32.0908 29.4728 31.8683C29.3806 31.6459 29.3333 31.4074 29.3333 31.1667V20.1667C29.3333 19.6804 29.5265 19.2141 29.8703 18.8703C30.2141 18.5265 30.6804 18.3333 31.1667 18.3333C31.6529 18.3333 32.1192 18.5265 32.463 18.8703C32.8068 19.2141 33 19.6804 33 20.1667V31.1667C33.0001 31.4074 32.9527 31.6459 32.8606 31.8683C32.7685 32.0908 32.6334 32.2929 32.4632 32.4632C32.2929 32.6334 32.0908 32.7685 31.8683 32.8606C31.6459 32.9527 31.4074 33.0001 31.1667 33Z" fill="white"/>
<path d="M9.16663 4.04167H34.8333C36.1925 4.04167 37.4961 4.58163 38.4572 5.54275C39.4183 6.50387 39.9583 7.80744 39.9583 9.16667V34.8333C39.9583 36.1926 39.4183 37.4961 38.4572 38.4573C37.4961 39.4184 36.1925 39.9583 34.8333 39.9583H9.16663C7.80739 39.9583 6.50383 39.4184 5.5427 38.4573C4.58158 37.4961 4.04163 36.1926 4.04163 34.8333V9.16667C4.04163 7.80744 4.58158 6.50387 5.5427 5.54275C6.50383 4.58163 7.80739 4.04167 9.16663 4.04167ZM14.3948 32.7282C14.809 32.3141 15.0416 31.7524 15.0416 31.1667V23.8333C15.0416 23.2477 14.809 22.686 14.3948 22.2718C13.9807 21.8577 13.419 21.625 12.8333 21.625C12.2476 21.625 11.6859 21.8577 11.2718 22.2718C10.8576 22.686 10.625 23.2477 10.625 23.8333V31.1667C10.625 31.7524 10.8576 32.3141 11.2718 32.7282C11.6859 33.1423 12.2476 33.375 12.8333 33.375C13.419 33.375 13.9807 33.1423 14.3948 32.7282ZM23.5615 32.7282C23.9756 32.3141 24.2083 31.7524 24.2083 31.1667V12.8333C24.2083 12.2477 23.9756 11.686 23.5615 11.2718C23.1473 10.8577 22.5856 10.625 22 10.625C21.4143 10.625 20.8526 10.8577 20.4384 11.2718C20.0243 11.686 19.7916 12.2477 19.7916 12.8333V31.1667C19.7916 31.7524 20.0243 32.3141 20.4384 32.7282C20.8526 33.1423 21.4143 33.375 22 33.375C22.5856 33.375 23.1473 33.1423 23.5615 32.7282ZM32.7282 32.7282C33.1423 32.3141 33.375 31.7524 33.375 31.1667V20.1667C33.375 19.581 33.1423 19.0193 32.7282 18.6051C32.314 18.191 31.7523 17.9583 31.1666 17.9583C30.5809 17.9583 30.0192 18.191 29.6051 18.6051C29.191 19.0193 28.9583 19.581 28.9583 20.1667V31.1667C28.9583 31.7524 29.191 32.3141 29.6051 32.7282C30.0192 33.1423 30.5809 33.375 31.1666 33.375C31.7523 33.375 32.314 33.1423 32.7282 32.7282Z" stroke="#182432" stroke-opacity="0.5" stroke-width="0.75"/>
</svg>
