<svg width="15" height="15" viewBox="0 0 15 15" fill="none" xmlns="http://www.w3.org/2000/svg">
<path d="M14.5754 2.27565C15.0636 1.7875 15.0636 0.996041 14.5754 0.507886C14.0873 0.01973 13.2958 0.0197301 12.8077 0.507886L7.79898 5.51656L2.79031 0.507885C2.30215 0.01973 1.5107 0.0197295 1.02254 0.507885C0.534386 0.99604 0.534386 1.7875 1.02254 2.27565L6.03121 7.28433L1.02254 12.293C0.534386 12.7812 0.534385 13.5726 1.02254 14.0608C1.5107 14.5489 2.30215 14.5489 2.79031 14.0608L7.79898 9.05209L12.8077 14.0608C13.2958 14.5489 14.0873 14.5489 14.5754 14.0608C15.0636 13.5726 15.0636 12.7812 14.5754 12.293L9.56675 7.28433L14.5754 2.27565Z" fill="white" fill-opacity="0.8"/>
</svg>
