<svg width="22" height="22" viewBox="0 0 22 22" fill="none" xmlns="http://www.w3.org/2000/svg">
<path d="M11.865 1.99622C11.4796 1.33207 10.5205 1.33207 10.1351 1.99622L7.42107 6.67353C7.2307 7.00161 6.90165 7.22551 6.52659 7.28215L1.44027 8.05038C0.585991 8.17941 0.286331 9.25802 0.951637 9.80922L4.74073 12.9484C5.09147 13.239 5.25639 13.6974 5.17119 14.1448L4.18002 19.35C4.02334 20.1728 4.88712 20.8121 5.62827 20.4219L10.4177 17.9C10.7822 17.7081 11.2179 17.7081 11.5824 17.9L16.3718 20.4219C17.113 20.8121 17.9768 20.1728 17.8201 19.35L16.8289 14.1448C16.7437 13.6974 16.9087 13.239 17.2594 12.9484L21.0485 9.80922C21.7138 9.25802 21.4141 8.17941 20.5598 8.05038L15.4735 7.28215C15.0985 7.22551 14.7694 7.00161 14.579 6.67353L11.865 1.99622Z" stroke="#858F96" stroke-linejoin="round"/>
</svg>
