
<svg width="29" height="30" viewBox="0 0 29 30" fill="none" xmlns="http://www.w3.org/2000/svg">
<g clip-path="url(#clip0_454_10896)">
<path d="M15.9391 19.1248L14.1714 20.8926C13.39 21.674 12.3301 22.113 11.2251 22.113C10.12 22.113 9.0602 21.674 8.2788 20.8926C7.4974 20.1112 7.05841 19.0514 7.05841 17.9463C7.05841 16.8412 7.4974 15.7814 8.2788 15L10.0466 13.2322C10.2028 13.076 10.4148 12.9882 10.6358 12.9882C10.8568 12.9882 11.0688 13.076 11.2251 13.2322C11.3814 13.3885 11.4692 13.6005 11.4692 13.8215C11.4692 14.0425 11.3814 14.2545 11.2251 14.4108L9.45731 16.1785C8.98847 16.6474 8.72508 17.2832 8.72508 17.9463C8.72508 18.6093 8.98847 19.2452 9.45731 19.7141C9.92615 20.1829 10.562 20.4463 11.2251 20.4463C11.8881 20.4463 12.524 20.1829 12.9928 19.7141L14.7606 17.9463C14.9169 17.79 15.1289 17.7022 15.3499 17.7022C15.5709 17.7022 15.7828 17.79 15.9391 17.9463C16.0954 18.1026 16.1832 18.3145 16.1832 18.5355C16.1832 18.7566 16.0954 18.9685 15.9391 19.1248ZM20.0639 15L18.2961 16.7678C18.1399 16.9241 17.9279 17.0119 17.7069 17.0119C17.4859 17.0119 17.2739 16.9241 17.1176 16.7678C16.9614 16.6115 16.8736 16.3995 16.8736 16.1785C16.8736 15.9575 16.9614 15.7455 17.1176 15.5893L18.8854 13.8215C19.3542 13.3527 19.6176 12.7168 19.6176 12.0537C19.6176 11.3907 19.3542 10.7548 18.8854 10.286C18.4166 9.81712 17.7807 9.55373 17.1176 9.55373C16.4546 9.55373 15.8187 9.81712 15.3499 10.286L13.5821 12.0537C13.4258 12.21 13.2139 12.2978 12.9928 12.2978C12.7718 12.2978 12.5599 12.21 12.4036 12.0537C12.2473 11.8975 12.1595 11.6855 12.1595 11.4645C12.1595 11.2435 12.2473 11.0315 12.4036 10.8752L14.1714 9.10745C14.9528 8.32605 16.0126 7.88707 17.1176 7.88707C18.2227 7.88707 19.2825 8.32605 20.0639 9.10745C20.8453 9.88885 21.2843 10.9487 21.2843 12.0537C21.2843 13.1588 20.8453 14.2186 20.0639 15Z" fill="#6563FF"/>
<path d="M16.5284 13.8215L12.9929 17.3571C12.8366 17.5134 12.6246 17.6012 12.4036 17.6012C12.1826 17.6012 11.9706 17.5134 11.8144 17.3571C11.6581 17.2008 11.5703 16.9888 11.5703 16.7678C11.5703 16.5468 11.6581 16.3348 11.8144 16.1786L15.3499 12.643C15.5062 12.4868 15.7181 12.399 15.9391 12.399C16.1602 12.399 16.3721 12.4868 16.5284 12.643C16.6847 12.7993 16.7725 13.0113 16.7725 13.2323C16.7725 13.4533 16.6847 13.6653 16.5284 13.8215Z" fill="#A2A1FF"/>
</g>
<defs>
<clipPath id="clip0_454_10896">
<rect width="20" height="20" fill="white" transform="translate(0.0292969 15) rotate(-45)"/>
</clipPath>
</defs>
</svg>
