<svg width="40" height="40" viewBox="0 0 40 40" fill="none" xmlns="http://www.w3.org/2000/svg">
<path d="M33.957 21.2559C33.957 23.9277 33.4238 26.0723 32.3574 27.6895C31.3027 29.3066 29.8672 30.1152 28.0508 30.1152C27.0078 30.1152 26.1582 29.7988 25.502 29.166C24.8574 28.5332 24.4824 27.6719 24.377 26.582H24.3066C23.8027 27.7539 23.0762 28.6387 22.127 29.2363C21.1777 29.8223 20.0703 30.1152 18.8047 30.1152C17.0703 30.1152 15.7285 29.5527 14.7793 28.4277C13.8301 27.291 13.3555 25.7031 13.3555 23.6641C13.3555 21.2969 14.0586 19.3633 15.4648 17.8633C16.8828 16.3516 18.7285 15.5957 21.002 15.5957C22.6191 15.5957 24.2949 15.8359 26.0293 16.3164L25.6426 24.4727V25C25.6426 26.2188 25.8477 27.1387 26.2578 27.7598C26.668 28.3691 27.3477 28.6738 28.2969 28.6738C29.5039 28.6738 30.4883 27.9941 31.25 26.6348C32.0234 25.2637 32.4102 23.4824 32.4102 21.291C32.4102 19.0176 31.9473 17.0254 31.0215 15.3145C30.0957 13.6035 28.7715 12.291 27.0488 11.377C25.3379 10.4512 23.3809 9.98828 21.1777 9.98828C18.4824 9.98828 16.1035 10.5742 14.041 11.7461C11.9902 12.9062 10.4082 14.5527 9.29492 16.6855C8.19336 18.8184 7.64258 21.2676 7.64258 24.0332C7.64258 27.8066 8.62109 30.7246 10.5781 32.7871C12.5352 34.8379 15.3125 35.8633 18.9102 35.8633C20 35.8633 21.1016 35.7578 22.2148 35.5469C23.3398 35.3359 24.6992 34.9258 26.293 34.3164V36.0566C23.9141 36.9941 21.4883 37.4629 19.0156 37.4629C14.9258 37.4629 11.7383 36.291 9.45312 33.9473C7.16797 31.5918 6.02539 28.3223 6.02539 24.1387C6.02539 21.1387 6.6582 18.4434 7.92383 16.0527C9.20117 13.6504 11 11.7871 13.3203 10.4629C15.6523 9.13867 18.2832 8.47656 21.2129 8.47656C23.7324 8.47656 25.959 8.99805 27.8926 10.041C29.8379 11.084 31.332 12.5781 32.375 14.5234C33.4297 16.457 33.957 18.7012 33.957 21.2559ZM15.166 23.6289C15.166 25.3047 15.4883 26.5645 16.1328 27.4082C16.7773 28.252 17.7969 28.6738 19.1914 28.6738C22.1797 28.6738 23.7793 26.6465 23.9902 22.5918L24.2715 17.4766C23.3457 17.1602 22.2148 17.002 20.8789 17.002C19.1328 17.002 17.7441 17.6055 16.7129 18.8125C15.6816 20.0078 15.166 21.6133 15.166 23.6289Z" fill="#858F96"/>
<path d="M32.3574 27.6895L32.1905 27.5794L32.1899 27.5802L32.3574 27.6895ZM25.502 29.166L25.3618 29.3087L25.3631 29.31L25.502 29.166ZM24.377 26.582L24.576 26.5628L24.5585 26.382H24.377V26.582ZM24.3066 26.582V26.382H24.1749L24.1229 26.503L24.3066 26.582ZM22.127 29.2363L22.232 29.4065L22.2335 29.4056L22.127 29.2363ZM14.7793 28.4277L14.6258 28.5559L14.6264 28.5567L14.7793 28.4277ZM15.4648 17.8633L15.319 17.7265L15.3189 17.7265L15.4648 17.8633ZM26.0293 16.3164L26.2291 16.3259L26.2366 16.1663L26.0827 16.1237L26.0293 16.3164ZM25.6426 24.4727L25.4426 24.4632V24.4727H25.6426ZM26.2578 27.7598L26.0909 27.87L26.0919 27.8714L26.2578 27.7598ZM31.25 26.6348L31.0758 26.5365L31.0755 26.537L31.25 26.6348ZM27.0488 11.377L26.9536 11.5529L26.9551 11.5536L27.0488 11.377ZM14.041 11.7461L14.1395 11.9202L14.1398 11.92L14.041 11.7461ZM9.29492 16.6855L9.11762 16.593L9.11722 16.5938L9.29492 16.6855ZM10.5781 32.7871L10.433 32.9248L10.4334 32.9252L10.5781 32.7871ZM22.2148 35.5469L22.178 35.3503L22.1776 35.3504L22.2148 35.5469ZM26.293 34.3164H26.493V34.0258L26.2215 34.1296L26.293 34.3164ZM26.293 36.0566L26.3663 36.2427L26.493 36.1928V36.0566H26.293ZM9.45312 33.9473L9.30958 34.0865L9.30993 34.0869L9.45312 33.9473ZM7.92383 16.0527L7.74724 15.9588L7.74707 15.9592L7.92383 16.0527ZM13.3203 10.4629L13.2216 10.289L13.2212 10.2892L13.3203 10.4629ZM27.8926 10.041L27.7976 10.217L27.7981 10.2173L27.8926 10.041ZM32.375 14.5234L32.1987 14.6179L32.1994 14.6192L32.375 14.5234ZM23.9902 22.5918L23.7905 22.5808L23.7905 22.5814L23.9902 22.5918ZM24.2715 17.4766L24.4712 17.4875L24.4795 17.3363L24.3362 17.2873L24.2715 17.4766ZM16.7129 18.8125L16.8643 18.9431L16.865 18.9424L16.7129 18.8125ZM33.757 21.2559C33.757 23.903 33.2286 26.0051 32.1905 27.5794L32.5244 27.7996C33.6191 26.1395 34.157 23.9525 34.157 21.2559H33.757ZM32.1899 27.5802C31.1694 29.145 29.7947 29.9152 28.0508 29.9152V30.3152C29.9397 30.3152 31.4361 29.4682 32.5249 27.7987L32.1899 27.5802ZM28.0508 29.9152C27.0515 29.9152 26.2543 29.6137 25.6408 29.022L25.3631 29.31C26.0621 29.984 26.9641 30.3152 28.0508 30.3152V29.9152ZM25.6421 29.0233C25.0378 28.43 24.678 27.6161 24.576 26.5628L24.1779 26.6013C24.2869 27.7276 24.677 28.6364 25.3618 29.3087L25.6421 29.0233ZM24.377 26.382H24.3066V26.782H24.377V26.382ZM24.1229 26.503C23.6327 27.643 22.9308 28.4939 22.0204 29.0671L22.2335 29.4056C23.2216 28.7835 23.9727 27.8648 24.4904 26.661L24.1229 26.503ZM22.0219 29.0661C21.1083 29.6301 20.0383 29.9152 18.8047 29.9152V30.3152C20.1023 30.3152 21.2471 30.0145 22.232 29.4065L22.0219 29.0661ZM18.8047 29.9152C17.1176 29.9152 15.8365 29.3705 14.9322 28.2988L14.6264 28.5567C15.6206 29.7349 17.023 30.3152 18.8047 30.3152V29.9152ZM14.9328 28.2995C14.0232 27.2103 13.5555 25.6738 13.5555 23.6641H13.1555C13.1555 25.7324 13.6369 27.3717 14.6258 28.5559L14.9328 28.2995ZM13.5555 23.6641C13.5555 21.3394 14.2445 19.4574 15.6108 18.0001L15.3189 17.7265C13.8727 19.2692 13.1555 21.2543 13.1555 23.6641H13.5555ZM15.6107 18.0001C16.987 16.5328 18.7778 15.7957 21.002 15.7957V15.3957C18.6792 15.3957 16.7786 16.1703 15.319 17.7265L15.6107 18.0001ZM21.002 15.7957C22.5992 15.7957 24.257 16.033 25.9759 16.5091L26.0827 16.1237C24.3329 15.6389 22.6391 15.3957 21.002 15.3957V15.7957ZM25.8295 16.3069L25.4428 24.4632L25.8424 24.4821L26.2291 16.3259L25.8295 16.3069ZM25.4426 24.4727V25H25.8426V24.4727H25.4426ZM25.4426 25C25.4426 26.2353 25.6494 27.2014 26.0909 27.87L26.4247 27.6496C26.0459 27.076 25.8426 26.2022 25.8426 25H25.4426ZM26.0919 27.8714C26.5499 28.5519 27.3029 28.8738 28.2969 28.8738V28.4738C27.3925 28.4738 26.786 28.1864 26.4237 27.6481L26.0919 27.8714ZM28.2969 28.8738C29.5978 28.8738 30.6393 28.1338 31.4245 26.7325L31.0755 26.537C30.3373 27.8545 29.4101 28.4738 28.2969 28.4738V28.8738ZM31.4242 26.733C32.2199 25.3225 32.6102 23.504 32.6102 21.291H32.2102C32.2102 23.4608 31.827 25.2049 31.0758 26.5365L31.4242 26.733ZM32.6102 21.291C32.6102 18.99 32.1415 16.964 31.1974 15.2193L30.8456 15.4096C31.7531 17.0868 32.2102 19.0452 32.2102 21.291H32.6102ZM31.1974 15.2193C30.2528 13.4736 28.9 12.1328 27.1426 11.2003L26.9551 11.5536C28.643 12.4493 29.9386 13.7335 30.8456 15.4096L31.1974 15.2193ZM27.144 11.2011C25.4002 10.2575 23.4096 9.78828 21.1777 9.78828V10.1883C23.3521 10.1883 25.2756 10.6449 26.9536 11.5529L27.144 11.2011ZM21.1777 9.78828C18.4526 9.78828 16.0387 10.381 13.9422 11.5722L14.1398 11.92C16.1683 10.7674 18.5123 10.1883 21.1777 10.1883V9.78828ZM13.9425 11.572C11.8574 12.7516 10.2484 14.4267 9.11762 16.593L9.47222 16.7781C10.568 14.6787 12.123 13.0609 14.1395 11.9202L13.9425 11.572ZM9.11722 16.5938C7.99892 18.759 7.44258 21.2405 7.44258 24.0332H7.84258C7.84258 21.2946 8.3878 18.8777 9.47262 16.7773L9.11722 16.5938ZM7.44258 24.0332C7.44258 27.8407 8.43046 30.8143 10.433 32.9248L10.7232 32.6494C8.81173 30.635 7.84258 27.7726 7.84258 24.0332H7.44258ZM10.4334 32.9252C12.4378 35.0255 15.2734 36.0633 18.9102 36.0633V35.6633C15.3516 35.6633 12.6326 34.6503 10.7228 32.649L10.4334 32.9252ZM18.9102 36.0633C20.013 36.0633 21.127 35.9566 22.2521 35.7434L22.1776 35.3504C21.0761 35.5591 19.987 35.6633 18.9102 35.6633V36.0633ZM22.2517 35.7435C23.3927 35.5295 24.7643 35.115 26.3644 34.5032L26.2215 34.1296C24.6341 34.7366 23.287 35.1424 22.178 35.3503L22.2517 35.7435ZM26.093 34.3164V36.0566H26.493V34.3164H26.093ZM26.2196 35.8706C23.8633 36.7992 21.4623 37.2629 19.0156 37.2629V37.6629C21.5142 37.6629 23.9648 37.1891 26.3663 36.2427L26.2196 35.8706ZM19.0156 37.2629C14.9654 37.2629 11.8349 36.1036 9.59632 33.8076L9.30993 34.0869C11.6416 36.4784 14.8861 37.6629 19.0156 37.6629V37.2629ZM9.59667 33.808C7.35693 31.4993 6.22539 28.2852 6.22539 24.1387H5.82539C5.82539 28.3593 6.97901 31.6842 9.30958 34.0865L9.59667 33.808ZM6.22539 24.1387C6.22539 21.1677 6.85183 18.5051 8.10059 16.1463L7.74707 15.9592C6.46457 18.3817 5.82539 21.1097 5.82539 24.1387H6.22539ZM8.10042 16.1466C9.36035 13.777 11.1326 11.9417 13.4194 10.6366L13.2212 10.2892C10.8674 11.6325 9.04199 13.5238 7.74724 15.9588L8.10042 16.1466ZM13.4191 10.6368C15.7183 9.33124 18.3145 8.67656 21.2129 8.67656V8.27656C18.2519 8.27656 15.5864 8.94611 13.2216 10.289L13.4191 10.6368ZM21.2129 8.67656C23.7042 8.67656 25.8972 9.19199 27.7976 10.217L27.9875 9.86499C26.0207 8.80411 23.7607 8.27656 21.2129 8.27656V8.67656ZM27.7981 10.2173C29.7087 11.2416 31.1744 12.7073 32.1987 14.6179L32.5513 14.4289C31.4897 12.4489 29.9671 10.9263 27.9871 9.86475L27.7981 10.2173ZM32.1994 14.6192C33.2357 16.519 33.757 18.7292 33.757 21.2559H34.157C34.157 18.6731 33.6237 16.395 32.5506 14.4277L32.1994 14.6192ZM14.966 23.6289C14.966 25.3249 15.2912 26.636 15.9739 27.5296L16.2917 27.2868C15.6853 26.4929 15.366 25.2845 15.366 23.6289H14.966ZM15.9739 27.5296C16.6675 28.4376 17.7558 28.8738 19.1914 28.8738V28.4738C17.838 28.4738 16.8872 28.0663 16.2917 27.2868L15.9739 27.5296ZM19.1914 28.8738C20.7359 28.8738 21.9454 28.3469 22.7893 27.2772C23.6257 26.2172 24.0835 24.649 24.19 22.6022L23.7905 22.5814C23.686 24.5893 23.2386 26.062 22.4753 27.0294C21.7197 27.9871 20.6352 28.4738 19.1914 28.4738V28.8738ZM24.1899 22.6028L24.4712 17.4875L24.0718 17.4656L23.7905 22.5808L24.1899 22.6028ZM24.3362 17.2873C23.3835 16.9617 22.2294 16.802 20.8789 16.802V17.202C22.2003 17.202 23.3079 17.3586 24.2068 17.6658L24.3362 17.2873ZM20.8789 16.802C19.0809 16.802 17.6342 17.4263 16.5608 18.6826L16.865 18.9424C17.8541 17.7846 19.1847 17.202 20.8789 17.202V16.802ZM16.5615 18.6819C15.491 19.9226 14.966 21.5789 14.966 23.6289H15.366C15.366 21.6476 15.8723 20.093 16.8643 18.9431L16.5615 18.6819Z" fill="#858F96"/>
</svg>
