<svg width="40" height="40" viewBox="0 0 40 40" fill="none" xmlns="http://www.w3.org/2000/svg">
<path fill-rule="evenodd" clip-rule="evenodd" d="M32.9166 20.0001C32.9166 19.3097 32.3569 18.7501 31.6666 18.7501H8.33325C7.6429 18.7501 7.08325 19.3097 7.08325 20.0001C7.08325 20.6904 7.6429 21.2501 8.33325 21.2501H31.6666C32.3569 21.2501 32.9166 20.6904 32.9166 20.0001Z" fill="white"/>
<path fill-rule="evenodd" clip-rule="evenodd" d="M32.9166 11.6667C32.9166 10.9764 32.3569 10.4167 31.6666 10.4167H8.33325C7.6429 10.4167 7.08325 10.9764 7.08325 11.6667C7.08325 12.3571 7.6429 12.9167 8.33325 12.9167H31.6666C32.3569 12.9167 32.9166 12.3571 32.9166 11.6667Z" fill="white"/>
<path fill-rule="evenodd" clip-rule="evenodd" d="M32.9166 28.3334C32.9166 27.6431 32.3569 27.0834 31.6666 27.0834H8.33325C7.6429 27.0834 7.08325 27.6431 7.08325 28.3334C7.08325 29.0238 7.6429 29.5834 8.33325 29.5834H31.6666C32.3569 29.5834 32.9166 29.0238 32.9166 28.3334Z" fill="white"/>
</svg>
