<svg width="41" height="40" viewBox="0 0 41 40" fill="none" xmlns="http://www.w3.org/2000/svg">
<path fill-rule="evenodd" clip-rule="evenodd" d="M20.9141 6.51899C20.9141 5.68007 20.1761 5 19.2658 5C18.3554 5 17.6174 5.68007 17.6174 6.51899V7.65823H16.6985C13.0308 7.65823 9.9951 10.2861 9.76615 13.6594L9.40185 19.0266C9.26296 21.073 8.51741 23.045 7.24641 24.728C6.09801 26.2486 7.12037 28.3487 9.11645 28.5694L14.7327 29.1905V30.8228C14.7327 33.1298 16.7622 35 19.2658 35C21.7693 35 23.7988 33.1298 23.7988 30.8228V29.1904L29.4151 28.5694C31.4111 28.3487 32.4335 26.2486 31.2851 24.728C30.0141 23.045 29.2685 21.073 29.1296 19.0266L28.7653 13.6594C28.5364 10.2861 25.5007 7.65823 21.833 7.65823H20.9141V6.51899ZM17.2053 30.8228C17.2053 31.8714 18.1278 32.7215 19.2658 32.7215C20.4037 32.7215 21.3262 31.8714 21.3262 30.8228V29.6835H17.2053V30.8228Z" stroke="#858F96" stroke-width="1.2"/>
</svg>
