<svg width="21" height="26" viewBox="0 0 21 26" fill="none" xmlns="http://www.w3.org/2000/svg">
<path d="M17.3045 0.333374C15.2874 0.333374 13.6523 2.12424 13.6523 4.33337C13.6523 4.68601 13.694 5.02798 13.7722 5.35372C13.6859 5.37324 13.6008 5.40687 13.5195 5.45547L10.1637 7.46021L5.89496 10.1318C5.85133 10.1591 5.81054 10.1897 5.77269 10.2233C5.22802 9.86969 4.59224 9.66671 3.91317 9.66671C1.89612 9.66671 0.260986 11.4576 0.260986 13.6667C0.260986 15.8758 1.89612 17.6667 3.91317 17.6667C4.97725 17.6667 5.93505 17.1683 6.60256 16.373L10.1654 18.5409L13.7621 20.6895C13.6904 21.0023 13.6523 21.3296 13.6523 21.6667C13.6523 23.8758 15.2874 25.6667 17.3045 25.6667C19.3215 25.6667 20.9567 23.8758 20.9567 21.6667C20.9567 19.4576 19.3215 17.6667 17.3045 17.6667C16.2521 17.6667 15.3037 18.1542 14.6373 18.9342L11.0491 16.7907L7.46345 14.6089C7.53005 14.3068 7.56534 13.9913 7.56534 13.6667C7.56534 12.9471 7.39185 12.2719 7.08818 11.6885L11.054 9.20652L14.3939 7.21126C14.4755 7.1625 14.5476 7.10208 14.6094 7.03292C15.2772 7.83215 16.2374 8.33337 17.3045 8.33337C19.3215 8.33337 20.9567 6.54251 20.9567 4.33337C20.9567 2.12424 19.3215 0.333374 17.3045 0.333374Z" fill="#858F96"/>
</svg>
