<svg width="40" height="40" viewBox="0 0 40 40" fill="none" xmlns="http://www.w3.org/2000/svg">
<path d="M21.4417 4.9937C20.7994 3.88679 19.2008 3.88678 18.5585 4.9937L14.0351 12.7892C13.7178 13.336 13.1694 13.7092 12.5443 13.8036L4.06712 15.084C2.64332 15.299 2.14389 17.0967 3.25273 18.0154L9.56788 23.2474C10.1524 23.7317 10.4273 24.4957 10.2853 25.2414L8.63337 33.9166C8.37223 35.288 9.81187 36.3535 11.0471 35.7031L19.0295 31.5001C19.637 31.1802 20.3632 31.1802 20.9707 31.5001L28.9531 35.7031C30.1883 36.3535 31.628 35.288 31.3668 33.9166L29.7149 25.2414C29.5729 24.4957 29.8478 23.7317 30.4323 23.2474L36.7475 18.0154C37.8563 17.0967 37.3569 15.299 35.9331 15.084L27.4559 13.8036C26.8308 13.7092 26.2824 13.336 25.9651 12.7892L21.4417 4.9937Z" stroke="#858F96" stroke-width="1.5" stroke-linejoin="round"/>
</svg>
