<svg width="28" height="28" viewBox="0 0 28 28" fill="none" xmlns="http://www.w3.org/2000/svg">
<path d="M14 1.45834C14.4833 1.45834 14.875 1.85009 14.875 2.33334V3.50001C14.875 3.98326 14.4833 4.37501 14 4.37501C13.5168 4.37501 13.125 3.98326 13.125 3.50001V2.33334C13.125 1.85009 13.5168 1.45834 14 1.45834Z" fill="#FFAA22"/>
<path d="M14 7.29168C10.2951 7.29168 7.29168 10.2951 7.29168 14C7.29168 17.7049 10.2951 20.7083 14 20.7083C17.7049 20.7083 20.7083 17.7049 20.7083 14C20.7083 10.2951 17.7049 7.29168 14 7.29168Z" fill="#FFAA22"/>
<path d="M6.36917 5.13174C6.02746 4.79003 5.47344 4.79003 5.13173 5.13174C4.79002 5.47345 4.79002 6.02747 5.13173 6.36918L5.95669 7.19413C6.2984 7.53584 6.85242 7.53584 7.19412 7.19413C7.53583 6.85243 7.53583 6.29841 7.19412 5.9567L6.36917 5.13174Z" fill="#FFAA22"/>
<path d="M26.5417 14C26.5417 14.4833 26.1499 14.875 25.6667 14.875H24.5C24.0168 14.875 23.625 14.4833 23.625 14C23.625 13.5168 24.0168 13.125 24.5 13.125H25.6667C26.1499 13.125 26.5417 13.5168 26.5417 14Z" fill="#FFAA22"/>
<path d="M22.8683 6.36917C23.21 6.02746 23.21 5.47344 22.8683 5.13173C22.5266 4.79002 21.9726 4.79002 21.6308 5.13173L20.8059 5.95669C20.4642 6.2984 20.4642 6.85242 20.8059 7.19412C21.1476 7.53583 21.7016 7.53583 22.0433 7.19412L22.8683 6.36917Z" fill="#FFAA22"/>
<path d="M14 23.625C14.4833 23.625 14.875 24.0168 14.875 24.5V25.6667C14.875 26.1499 14.4833 26.5417 14 26.5417C13.5168 26.5417 13.125 26.1499 13.125 25.6667V24.5C13.125 24.0168 13.5168 23.625 14 23.625Z" fill="#FFAA22"/>
<path d="M22.0434 20.8059C21.7017 20.4642 21.1477 20.4642 20.806 20.8059C20.4643 21.1476 20.4643 21.7016 20.806 22.0433L21.6309 22.8683C21.9726 23.21 22.5267 23.21 22.8684 22.8683C23.2101 22.5266 23.2101 21.9726 22.8684 21.6309L22.0434 20.8059Z" fill="#FFAA22"/>
<path d="M4.37501 14C4.37501 14.4833 3.98326 14.875 3.50001 14.875H2.33334C1.85009 14.875 1.45834 14.4833 1.45834 14C1.45834 13.5168 1.85009 13.125 2.33334 13.125H3.50001C3.98326 13.125 4.37501 13.5168 4.37501 14Z" fill="#FFAA22"/>
<path d="M7.19405 22.0433C7.53576 21.7016 7.53576 21.1476 7.19405 20.8059C6.85234 20.4642 6.29832 20.4642 5.95661 20.8059L5.13165 21.6309C4.78994 21.9726 4.78994 22.5266 5.13165 22.8683C5.47336 23.21 6.02738 23.21 6.36909 22.8683L7.19405 22.0433Z" fill="#FFAA22"/>
</svg>
