<svg width="96" height="96" viewBox="0 0 96 96" fill="none" xmlns="http://www.w3.org/2000/svg">
<circle cx="48" cy="48" r="48" fill="#DCDEE0"/>
<path fill-rule="evenodd" clip-rule="evenodd" d="M42 29C39.7909 29 38 30.7909 38 33V35.6667H34C29.5817 35.6667 26 39.2484 26 43.6667V59.6667C26 64.0849 29.5817 67.6667 34 67.6667H62C66.4183 67.6667 70 64.0849 70 59.6667V43.6667C70 39.2484 66.4183 35.6667 62 35.6667H56.6667V33C56.6667 30.7909 54.8758 29 52.6667 29H42ZM56.6667 50.3333C56.6667 55.488 52.488 59.6667 47.3333 59.6667C42.1787 59.6667 38 55.488 38 50.3333C38 45.1787 42.1787 41 47.3333 41C52.488 41 56.6667 45.1787 56.6667 50.3333ZM47.3333 55C49.9107 55 52 52.9107 52 50.3333C52 47.756 49.9107 45.6667 47.3333 45.6667C44.756 45.6667 42.6667 47.756 42.6667 50.3333C42.6667 52.9107 44.756 55 47.3333 55Z" fill="white"/>
</svg>
