<svg width="40" height="40" viewBox="0 0 40 40" fill="none" xmlns="http://www.w3.org/2000/svg">
<path d="M18.3334 6.25C14.8816 6.25 12.0834 9.04822 12.0834 12.5C12.0834 15.9518 14.8816 18.75 18.3334 18.75C21.7852 18.75 24.5834 15.9518 24.5834 12.5C24.5834 9.04822 21.7852 6.25 18.3334 6.25Z" fill="#A1B5FF"/>
<path d="M11.6667 22.0833C8.21497 22.0833 5.41675 24.8816 5.41675 28.3333V30.3138C5.41675 31.5692 6.32655 32.6396 7.56553 32.8419C14.6969 34.0062 21.9699 34.0062 29.1013 32.8419C30.3403 32.6396 31.2501 31.5692 31.2501 30.3138V28.3333C31.2501 24.8816 28.4519 22.0833 25.0001 22.0833H24.432C24.1245 22.0833 23.8189 22.132 23.5266 22.2274L22.0841 22.6984C19.647 23.4942 17.0199 23.4942 14.5827 22.6984L13.1402 22.2274C12.8479 22.132 12.5423 22.0833 12.2349 22.0833H11.6667Z" fill="#A1B5FF"/>
<path d="M32.5001 10.4167C33.1904 10.4167 33.7501 10.9763 33.7501 11.6667V14.5833H36.6667C37.3571 14.5833 37.9167 15.143 37.9167 15.8333C37.9167 16.5237 37.3571 17.0833 36.6667 17.0833H33.7501V20C33.7501 20.6904 33.1904 21.25 32.5001 21.25C31.8097 21.25 31.2501 20.6904 31.2501 20V17.0833H28.3334C27.6431 17.0833 27.0834 16.5237 27.0834 15.8333C27.0834 15.143 27.6431 14.5833 28.3334 14.5833H31.2501V11.6667C31.2501 10.9763 31.8097 10.4167 32.5001 10.4167Z" fill="#A1B5FF"/>
</svg>
