<svg width="22" height="20" viewBox="0 0 22 20" fill="none" xmlns="http://www.w3.org/2000/svg">
<path d="M11.865 0.996222C11.4796 0.332071 10.5205 0.332069 10.1351 0.996222L7.42107 5.67353C7.2307 6.00161 6.90165 6.22551 6.52659 6.28215L1.44027 7.05038C0.585991 7.17941 0.286331 8.25802 0.951637 8.80922L4.74073 11.9484C5.09147 12.239 5.25639 12.6974 5.17119 13.1448L4.18002 18.35C4.02334 19.1728 4.88712 19.8121 5.62827 19.4219L10.4177 16.9C10.7822 16.7081 11.2179 16.7081 11.5824 16.9L16.3718 19.4219C17.113 19.8121 17.9768 19.1728 17.8201 18.35L16.8289 13.1448C16.7437 12.6974 16.9087 12.239 17.2594 11.9484L21.0485 8.80922C21.7138 8.25802 21.4141 7.17941 20.5598 7.05038L15.4735 6.28215C15.0985 6.22551 14.7694 6.00161 14.579 5.67353L11.865 0.996222Z" fill="#FFB121"/>
</svg>
