
<svg width="36" height="36" viewBox="0 0 36 36" fill="none" xmlns="http://www.w3.org/2000/svg">
<path d="M33.75 16.3101C33.75 9.17766 26.6849 3.375 17.9998 3.375C9.31606 3.375 2.25 9.17766 2.25 16.3101C2.25 22.7044 7.85321 28.0594 15.422 29.072C15.935 29.1838 16.633 29.4142 16.8096 29.8579C16.9685 30.261 16.9135 30.8923 16.8604 31.2993C16.8604 31.2993 16.6756 32.424 16.6357 32.6636C16.5672 33.0666 16.3193 34.2397 17.9998 33.5229C19.681 32.806 27.0704 28.1177 30.3747 24.2685C32.6573 21.7354 33.75 19.1647 33.75 16.3101Z" fill="#C7CFD5"/>
<path d="M14.7998 12.8524H13.695C13.5256 12.8524 13.3879 12.9913 13.3879 13.1619V20.0993C13.3879 20.2702 13.5256 20.4088 13.695 20.4088H14.7998C14.9691 20.4088 15.1065 20.2702 15.1065 20.0993V13.1619C15.1065 12.9913 14.9691 12.8524 14.7998 12.8524Z" fill="white"/>
<path d="M22.404 12.8524H21.2993C21.1299 12.8524 20.9925 12.9913 20.9925 13.1619V17.2834L17.8476 12.9901C17.7895 12.9019 17.6951 12.8582 17.5922 12.8524H16.4877C16.3183 12.8524 16.1807 12.9913 16.1807 13.1619V20.0993C16.1807 20.2702 16.3183 20.4088 16.4877 20.4088H17.5922C17.7619 20.4088 17.8992 20.2702 17.8992 20.0993V15.979L21.0481 20.2778C21.1046 20.3588 21.2006 20.4088 21.2993 20.4088H22.404C22.5737 20.4088 22.7108 20.2702 22.7108 20.0993V13.1619C22.7108 12.9913 22.5737 12.8524 22.404 12.8524Z" fill="white"/>
<path d="M12.1368 18.6717H9.13503V13.1624C9.13503 12.9912 8.99765 12.8523 8.82857 12.8523H7.72351C7.55413 12.8523 7.41675 12.9912 7.41675 13.1624V20.0985C7.41675 20.2669 7.55352 20.4089 7.72321 20.4089H12.1368C12.3062 20.4089 12.443 20.2698 12.443 20.0985V18.9818C12.443 18.8106 12.3062 18.6717 12.1368 18.6717Z" fill="white"/>
<path d="M28.5047 14.5896C28.6741 14.5896 28.8109 14.451 28.8109 14.2795V13.1627C28.8109 12.9915 28.6741 12.8523 28.5047 12.8523H24.0914C23.9219 12.8523 23.7847 12.9941 23.7847 13.1624V20.0988C23.7847 20.2667 23.9216 20.4089 24.0908 20.4089H28.5047C28.6741 20.4089 28.8109 20.2698 28.8109 20.0988V18.9818C28.8109 18.8109 28.6741 18.6717 28.5047 18.6717H25.5033V17.4991H28.5047C28.6741 17.4991 28.8109 17.3602 28.8109 17.189V16.0722C28.8109 15.901 28.6741 15.7619 28.5047 15.7619H25.5033V14.5896H28.5047Z" fill="white"/>
</svg>
