<svg width="60" height="60" viewBox="0 0 60 60" fill="none" xmlns="http://www.w3.org/2000/svg">
<path d="M24.7184 8.64226L25.2122 10.6424C23.266 11.1234 21.4033 11.8946 19.6868 12.9301L18.6304 11.1612C20.5199 10.0169 22.5728 9.16754 24.7184 8.64226ZM35.2816 8.64226L34.7878 10.6424C36.734 11.1234 38.5967 11.8946 40.3132 12.9301L41.3821 11.1612C39.4876 10.018 37.4308 9.16865 35.2816 8.64226ZM11.1612 18.6242C10.018 20.5165 9.16867 22.5713 8.64223 24.7184L10.6424 25.2122C11.1234 23.266 11.8946 21.4034 12.93 19.6868L11.1612 18.6242ZM10.0611 30C10.0609 28.9999 10.1361 28.0012 10.2861 27.0123L8.24845 26.6998C7.91718 28.8854 7.91718 31.1084 8.24845 33.294L10.2861 32.9877C10.1364 31.9989 10.0612 31.0002 10.0611 30ZM41.3696 48.8326L40.3132 47.07C38.5994 48.1064 36.7386 48.8777 34.7941 49.3577L35.2879 51.3578C37.4308 50.8275 39.4812 49.9761 41.3696 48.8326ZM49.9389 30C49.9388 31.0002 49.8636 31.9989 49.7139 32.9877L51.7515 33.294C52.0828 31.1084 52.0828 28.8854 51.7515 26.6998L49.7139 27.0123C49.8639 28.0012 49.9391 28.9999 49.9389 30ZM51.3578 35.2754L49.3576 34.7816C48.8778 36.7301 48.1065 38.595 47.07 40.3133L48.8388 41.3758C49.9831 39.4819 50.8325 37.4249 51.3578 35.2754ZM32.9877 49.7139C31.0072 50.014 28.9928 50.014 27.0123 49.7139L26.706 51.7516C28.8895 52.0829 31.1105 52.0829 33.294 51.7516L32.9877 49.7139ZM46.0511 41.8259C44.8631 43.4369 43.4386 44.8593 41.8258 46.0449L43.0509 47.7075C44.8273 46.3998 46.3989 44.8346 47.7138 43.0635L46.0511 41.8259ZM41.8258 13.9489C43.4388 15.1368 44.8632 16.5613 46.0511 18.1742L47.7138 16.9366C46.4035 15.1639 44.8362 13.5965 43.0634 12.2863L41.8258 13.9489ZM13.9489 18.1742C15.1368 16.5613 16.5612 15.1368 18.1742 13.9489L16.9366 12.2863C15.1638 13.5965 13.5965 15.1639 12.2862 16.9366L13.9489 18.1742ZM48.8388 18.6242L47.07 19.6868C48.1064 21.4007 48.8777 23.2614 49.3576 25.2059L51.3578 24.7122C50.8313 22.567 49.982 20.5143 48.8388 18.6242ZM27.0123 10.2861C28.9928 9.98607 31.0072 9.98607 32.9877 10.2861L33.294 8.24848C31.1105 7.91717 28.8895 7.91717 26.706 8.24848L27.0123 10.2861ZM15.0052 48.2576L10.7486 49.2451L11.7424 44.9886L9.73606 44.5198L8.74224 48.7764C8.68005 49.0403 8.67051 49.3138 8.71415 49.5814C8.7578 49.849 8.85377 50.1054 8.99658 50.3359C9.13939 50.5663 9.32624 50.7664 9.54643 50.9246C9.76663 51.0828 10.0159 51.196 10.2798 51.2578C10.5886 51.3265 10.9087 51.3265 11.2174 51.2578L15.474 50.2765L15.0052 48.2576ZM10.1611 42.6822L12.1737 43.1447L12.8613 40.1945C11.8572 38.5103 11.1094 36.686 10.6424 34.7816L8.64223 35.2754C9.09213 37.0983 9.77266 38.8563 10.6674 40.507L10.1611 42.6822ZM19.7868 47.145L16.8366 47.8325L17.3053 49.8452L19.4743 49.3389C21.1237 50.2363 22.8821 50.917 24.7059 51.364L25.1997 49.3639C23.3012 48.8908 21.4834 48.1388 19.8055 47.1325L19.7868 47.145ZM30 12.1238C20.1243 12.13 12.13 20.1368 12.13 30.0063C12.1354 33.3678 13.0863 36.6601 14.8739 39.507L13.1551 46.845L20.4868 45.1261C28.8437 50.3827 39.882 47.8763 45.1386 39.5257C50.3952 31.1751 47.895 20.1368 39.5444 14.8739C36.6856 13.0762 33.3771 12.1228 30 12.1238Z" fill="#DCDEE0"/>
</svg>
