
<svg width="44" height="44" viewBox="0 0 44 44" fill="none" xmlns="http://www.w3.org/2000/svg">
<path fill-rule="evenodd" clip-rule="evenodd" d="M35.0092 20.1325C34.0341 21.7328 32.4123 22.9591 30.4697 23.524C30.4208 23.5381 30.3724 23.5531 30.3232 23.5667C30.0231 23.6521 29.7151 23.704 29.4102 23.704C28.0642 23.704 27.3043 22.795 27.7126 21.6734C28.011 20.8532 28.795 20.1607 29.7516 19.8404C31.2344 19.2996 32.2706 18.0663 32.2706 16.631C32.2706 14.6976 30.3892 13.1299 28.069 13.1299C25.7485 13.1299 23.8675 14.6976 23.8675 16.631V27.3683C23.8675 29.9502 22.3715 32.2149 20.1328 33.4953C18.9126 34.1936 17.4752 34.6041 15.9316 34.6041C11.5554 34.6041 7.99536 31.3582 7.99536 27.3683C7.99536 26.0985 8.3588 24.9056 8.99152 23.8672C9.97096 22.2599 11.6025 21.0292 13.557 20.4678C13.5587 20.4674 13.56 20.4669 13.5618 20.4665C13.8914 20.364 14.2328 20.3068 14.5698 20.3068C15.922 20.3068 16.6854 21.2202 16.2753 22.347C15.9976 23.1104 15.2492 23.7678 14.3767 24.1176C14.2728 24.1524 14.1712 24.1915 14.0713 24.2324C12.6853 24.8049 11.7301 25.992 11.7301 27.3683C11.7301 29.3017 13.6111 30.8694 15.9316 30.8694C18.2522 30.8694 20.1328 29.3017 20.1328 27.3683V16.631C20.1328 14.0491 21.6288 11.7848 23.8675 10.504C25.088 9.80571 26.5251 9.39563 28.069 9.39563C32.4448 9.39563 36.0053 12.6415 36.0053 16.631C36.0053 17.9008 35.6419 19.0941 35.0092 20.1325ZM22 0C9.8494 0 0 9.8494 0 22C0 34.1502 9.8494 44 22 44C34.1497 44 44 34.1502 44 22C44 9.8494 34.1497 0 22 0Z" fill="#DCDEE0"/>
<path fill-rule="evenodd" clip-rule="evenodd" d="M35.0092 20.1325C34.0341 21.7328 32.4123 22.9591 30.4697 23.524C30.4208 23.5381 30.3724 23.5531 30.3232 23.5667C30.0231 23.6521 29.7151 23.704 29.4102 23.704C28.0642 23.704 27.3043 22.795 27.7126 21.6734C28.011 20.8532 28.795 20.1607 29.7516 19.8404C31.2344 19.2996 32.2706 18.0663 32.2706 16.631C32.2706 14.6976 30.3892 13.1299 28.069 13.1299C25.7485 13.1299 23.8675 14.6976 23.8675 16.631V27.3683C23.8675 29.9502 22.3715 32.2149 20.1328 33.4953C18.9126 34.1936 17.4752 34.6041 15.9316 34.6041C11.5554 34.6041 7.99536 31.3582 7.99536 27.3683C7.99536 26.0985 8.3588 24.9056 8.99152 23.8672C9.97096 22.2599 11.6025 21.0292 13.557 20.4678C13.5587 20.4674 13.56 20.4669 13.5618 20.4665C13.8914 20.364 14.2328 20.3068 14.5698 20.3068C15.922 20.3068 16.6854 21.2202 16.2753 22.347C15.9976 23.1104 15.2492 23.7678 14.3767 24.1176C14.2728 24.1524 14.1712 24.1915 14.0713 24.2324C12.6853 24.8049 11.7301 25.992 11.7301 27.3683C11.7301 29.3017 13.6111 30.8694 15.9316 30.8694C18.2522 30.8694 20.1328 29.3017 20.1328 27.3683V16.631C20.1328 14.0491 21.6288 11.7848 23.8675 10.504C25.088 9.80571 26.5251 9.39563 28.069 9.39563C32.4448 9.39563 36.0053 12.6415 36.0053 16.631C36.0053 17.9008 35.6419 19.0941 35.0092 20.1325Z" fill="white"/>
</svg>
