
<svg width="34" height="34" viewBox="0 0 34 34" fill="none" xmlns="http://www.w3.org/2000/svg">
<path d="M30.7988 16.9243C30.7988 24.6706 24.5191 30.9503 16.7728 30.9503C13.8182 30.9503 11.077 30.0367 8.81616 28.4766L4.02191 29.6752L5.27823 24.964C3.68297 22.6874 2.74683 19.9152 2.74683 16.9243C2.74683 9.17796 9.02647 2.89832 16.7728 2.89832C24.5191 2.89832 30.7988 9.17796 30.7988 16.9243Z" fill="#C7CFD5"/>
<path fill-rule="evenodd" clip-rule="evenodd" d="M16.7728 33.2879C25.8102 33.2879 33.1365 25.9617 33.1365 16.9243C33.1365 7.88692 25.8102 0.560669 16.7728 0.560669C7.73543 0.560669 0.40918 7.88692 0.40918 16.9243C0.40918 19.8591 1.18177 22.6134 2.53467 24.9951L0.40918 33.2879L8.95902 31.3054C11.2809 32.5696 13.943 33.2879 16.7728 33.2879ZM16.7728 30.7705C24.4198 30.7705 30.619 24.5713 30.619 16.9243C30.619 9.27729 24.4198 3.07815 16.7728 3.07815C9.1258 3.07815 2.92666 9.27729 2.92666 16.9243C2.92666 19.8769 3.85081 22.6136 5.42562 24.8609L4.1854 29.5117L8.91819 28.3285C11.15 29.8686 13.8561 30.7705 16.7728 30.7705Z" fill="white"/>
<path d="M12.6818 9.32675C12.2928 8.5453 11.6959 8.61448 11.093 8.61448C10.0154 8.61448 8.33521 9.9052 8.33521 12.3073C8.33521 14.276 9.20271 16.4311 12.1259 19.6548C14.947 22.766 18.6538 24.3754 21.7311 24.3206C24.8084 24.2658 25.4416 21.6177 25.4416 20.7234C25.4416 20.327 25.1956 20.1292 25.0261 20.0755C23.9775 19.5722 22.0434 18.6345 21.6033 18.4583C21.1632 18.2821 20.9334 18.5204 20.7906 18.65C20.3915 19.0303 19.6004 20.1512 19.3295 20.4033C19.0587 20.6554 18.6549 20.5278 18.4868 20.4325C17.8684 20.1843 16.1917 19.4385 14.8552 18.1429C13.2023 16.5406 13.1053 15.9894 12.7939 15.4987C12.5448 15.1061 12.7276 14.8652 12.8188 14.76C13.1749 14.3491 13.6667 13.7147 13.8872 13.3994C14.1077 13.0841 13.9326 12.6055 13.8276 12.3074C13.3758 11.0252 12.9931 9.95191 12.6818 9.32675Z" fill="white"/>
</svg>
