
<svg width="48" height="48" viewBox="0 0 48 48" fill="none" xmlns="http://www.w3.org/2000/svg">
<path d="M44.5708 24C44.5708 35.1981 35.3607 44.2759 23.9994 44.2759C19.666 44.2759 15.6455 42.9552 12.3297 40.7L5.29811 42.4326L7.14071 35.6222C4.80099 32.3312 3.42798 28.3236 3.42798 24C3.42798 12.802 12.6381 3.72418 23.9994 3.72418C35.3607 3.72418 44.5708 12.802 44.5708 24Z" fill="#DCDEE0"/>
<path fill-rule="evenodd" clip-rule="evenodd" d="M24 47.6552C37.2548 47.6552 48 37.0644 48 24C48 10.9356 37.2548 0.344849 24 0.344849C10.7452 0.344849 0 10.9356 0 24C0 28.2425 1.13314 32.2242 3.11738 35.667L0 47.6552L12.5398 44.7892C15.9452 46.6168 19.8496 47.6552 24 47.6552ZM24 44.0159C35.2156 44.0159 44.3077 35.0545 44.3077 24C44.3077 12.9455 35.2156 3.98411 24 3.98411C12.7844 3.98411 3.69231 12.9455 3.69231 24C3.69231 28.2682 5.04772 32.2243 7.35744 35.4731L5.53846 42.1963L12.4799 40.4859C15.7532 42.7122 19.7221 44.0159 24 44.0159Z" fill="white"/>
<path fill-rule="evenodd" clip-rule="evenodd" d="M15.5933 35.1343C15.7747 35.2395 16.1473 35.2394 17.0019 35.2387C20.6285 35.2356 23.7611 35.2249 25.9892 35.2249C36.3877 35.2249 36.1145 24.6991 31.2525 23.3859C31.9646 22.1728 35.2091 19.8941 33.2025 15.1839C31.2181 10.5264 22.6849 11.5833 16.8487 11.5861C14.6892 11.5863 15.0122 13.1206 15.0232 15.506C15.041 19.2844 15.0264 29.5117 15.0238 33.9328C15.0232 34.829 15.3045 34.9667 15.5933 35.1343ZM20.0927 31.2769C21.0745 31.2769 23.3905 31.2769 25.3757 31.2739C27.6238 31.2705 29.6258 30.2594 29.5757 28.1075C29.539 26.0803 28.1364 25.4151 26.1897 25.2293C24.3354 25.2464 22.2146 25.2464 20.0926 25.2464L20.0927 31.2769ZM20.0927 21.1752C24.004 21.1237 25.513 21.3268 27.6485 20.8125C29.1158 20.0117 29.7568 17.0415 27.6567 16.0327C26.1978 15.3318 21.8865 15.5716 20.0927 15.6434V21.1752Z" fill="white"/>
</svg>
