<svg width="35" height="33" viewBox="0 0 35 33" fill="none" xmlns="http://www.w3.org/2000/svg">
<path d="M3.35855 30.8637H3.35842C3.23817 30.8637 3.11939 30.8407 3.009 30.7962C2.89862 30.7517 2.79921 30.6869 2.7161 30.606C2.63301 30.5252 2.56787 30.43 2.52369 30.3262C2.47953 30.2224 2.457 30.1117 2.45703 30.0002V30V21.8182L2.45703 21.8181C2.457 21.7066 2.47953 21.5959 2.52369 21.4921C2.56787 21.3883 2.63301 21.2931 2.7161 21.2122C2.79921 21.1314 2.89862 21.0665 3.009 21.0221C3.11939 20.9776 3.23817 20.9546 3.35842 20.9546H3.35855H8.96461H8.96473C9.08499 20.9546 9.20376 20.9776 9.31416 21.0221C9.42453 21.0665 9.52394 21.1314 9.60706 21.2122C9.69014 21.2931 9.75529 21.3883 9.79946 21.4921C9.84363 21.5959 9.86615 21.7066 9.86612 21.8181V21.8182L9.86612 30L9.86612 30.0002C9.86615 30.1117 9.84363 30.2224 9.79946 30.3262C9.75529 30.43 9.69014 30.5252 9.60706 30.606C9.52395 30.6869 9.42454 30.7517 9.31416 30.7962C9.20376 30.8407 9.08498 30.8637 8.96473 30.8637L8.96461 31.3637V30.8637H3.35855Z" fill="white" stroke="#858F96"/>
<path d="M14.5705 30.8639H14.5703C14.4501 30.8639 14.3313 30.8408 14.2209 30.7964C14.1105 30.7519 14.0111 30.6871 13.928 30.6062C13.8449 30.5254 13.7798 30.4301 13.7356 30.3263C13.6914 30.2226 13.6689 30.1118 13.6689 30.0004V30.0002V13.6366L13.6689 13.6365C13.6689 13.525 13.6914 13.4143 13.7356 13.3105C13.7798 13.2067 13.8449 13.1114 13.928 13.0306C14.0111 12.9497 14.1105 12.8849 14.2209 12.8404C14.3313 12.796 14.4501 12.7729 14.5703 12.7729H14.5705H20.1765H20.1766C20.2969 12.7729 20.4157 12.796 20.5261 12.8404C20.6364 12.8849 20.7359 12.9497 20.819 13.0306C20.9021 13.1114 20.9672 13.2067 21.0114 13.3105C21.0555 13.4143 21.0781 13.525 21.078 13.6365V13.6366V30.0002L21.078 30.0004C21.0781 30.1118 21.0555 30.2226 21.0114 30.3263C20.9672 30.4301 20.9021 30.5254 20.819 30.6062C20.7359 30.6871 20.6365 30.7519 20.5261 30.7964C20.4157 30.8408 20.2969 30.8639 20.1766 30.8639L20.1765 31.3629V30.8639H14.5705Z" fill="white" stroke="#858F96"/>
<path d="M31.3888 30.8638H31.3887H25.7826H25.7825C25.6622 30.8638 25.5435 30.8408 25.4331 30.7963C25.3227 30.7518 25.2233 30.687 25.1402 30.6061C25.0571 30.5253 24.9919 30.43 24.9478 30.3262C24.9036 30.2225 24.8811 30.1117 24.8811 30.0003V30.0001V2.72741L24.8811 2.72727C24.8811 2.6158 24.9036 2.50508 24.9478 2.4013C24.9919 2.29749 25.0571 2.20226 25.1402 2.12143C25.2233 2.04056 25.3227 1.97572 25.4331 1.93125C25.5435 1.88678 25.6622 1.86374 25.7825 1.86377H25.7826H31.3887H31.3888C31.5091 1.86374 31.6278 1.88678 31.7382 1.93125C31.8486 1.97572 31.948 2.04056 32.0311 2.12143C32.1142 2.20226 32.1794 2.29749 32.2235 2.4013C32.2677 2.50508 32.2902 2.6158 32.2902 2.72727V2.72741V30.0001V30.0003C32.2902 30.1117 32.2677 30.2225 32.2235 30.3262C32.1794 30.43 32.1142 30.5253 32.0311 30.6061C31.948 30.687 31.8486 30.7518 31.7382 30.7963C31.6278 30.8408 31.5091 30.8638 31.3888 30.8638Z" fill="white" stroke="#858F96"/>
</svg>
