<svg width="32" height="32" viewBox="0 0 32 32" fill="none" xmlns="http://www.w3.org/2000/svg">
<g clip-path="url(#clip0_875_34971)">
<path d="M16.8001 27C16.8001 27 18.6667 27 18.6667 25.1333C18.6667 23.2667 16.8001 17.6667 9.33341 17.6667C1.86675 17.6667 8.04583e-05 23.2667 8.04583e-05 25.1333C8.04583e-05 27 1.86675 27 1.86675 27H16.8001ZM9.33341 14.2C7.8482 14.2 6.42382 13.61 5.37362 12.5598C4.32341 11.5096 3.73341 10.0852 3.73341 8.6C3.73341 7.11479 4.32341 5.69041 5.37362 4.6402C6.42382 3.59 7.8482 3 9.33341 3C10.8186 3 12.243 3.59 13.2932 4.6402C14.3434 5.69041 14.9334 7.11479 14.9334 8.6C14.9334 10.0852 14.3434 11.5096 13.2932 12.5598C12.243 13.61 10.8186 14.2 9.33341 14.2Z" stroke="#182432" stroke-opacity="0.5"/>
<path fill-rule="evenodd" clip-rule="evenodd" d="M21.6236 26.9999C21.9003 26.4172 22.0383 25.7782 22.0268 25.1332C22.0268 22.6039 20.7574 19.9999 18.4129 18.1892C19.5831 17.8287 20.8023 17.6523 22.0268 17.6666C29.4934 17.6666 31.3601 23.2666 31.3601 25.1332C31.3601 26.9999 29.4934 26.9999 29.4934 26.9999H21.6236Z" stroke="#182432" stroke-opacity="0.5"/>
<path d="M22.96 14.2C21.7224 14.2 20.5354 13.7084 19.6602 12.8332C18.785 11.958 18.2934 10.771 18.2934 9.53337C18.2934 8.29569 18.785 7.1087 19.6602 6.23353C20.5354 5.35836 21.7224 4.8667 22.96 4.8667C24.1977 4.8667 25.3847 5.35836 26.2599 6.23353C27.135 7.1087 27.6267 8.29569 27.6267 9.53337C27.6267 10.771 27.135 11.958 26.2599 12.8332C25.3847 13.7084 24.1977 14.2 22.96 14.2V14.2Z" stroke="#182432" stroke-opacity="0.5"/>
</g>
<defs>
<clipPath id="clip0_875_34971">
<rect width="32" height="32" fill="white"/>
</clipPath>
</defs>
</svg>
