<svg width="48" height="48" viewBox="0 0 48 48" fill="none" xmlns="http://www.w3.org/2000/svg">
<path d="M14 42.3333H7.33329C7.11441 42.3334 6.89765 42.2903 6.69542 42.2066C6.49318 42.1228 6.30943 42.0001 6.15465 41.8453C5.99988 41.6905 5.87712 41.5068 5.79338 41.3045C5.70964 41.1023 5.66657 40.8856 5.66663 40.6667V30.6667C5.66657 30.4478 5.70964 30.231 5.79338 30.0288C5.87712 29.8266 5.99988 29.6428 6.15465 29.488C6.30943 29.3333 6.49318 29.2105 6.69542 29.1268C6.89765 29.043 7.11441 28.9999 7.33329 29H14C14.2188 28.9999 14.4356 29.043 14.6378 29.1268C14.8401 29.2105 15.0238 29.3333 15.1786 29.488C15.3334 29.6428 15.4561 29.8266 15.5399 30.0288C15.6236 30.231 15.6667 30.4478 15.6666 30.6667V40.6667C15.6667 40.8856 15.6236 41.1023 15.5399 41.3045C15.4561 41.5068 15.3334 41.6905 15.1786 41.8453C15.0238 42.0001 14.8401 42.1228 14.6378 42.2066C14.4356 42.2903 14.2188 42.3334 14 42.3333Z" fill="#0F0F21"/>
<path d="M27.3333 42.3333H20.6667C20.4478 42.3334 20.231 42.2903 20.0288 42.2066C19.8266 42.1228 19.6428 42.0001 19.488 41.8453C19.3333 41.6905 19.2105 41.5068 19.1268 41.3045C19.043 41.1023 18.9999 40.8856 19 40.6667V20.6667C18.9999 20.4478 19.043 20.231 19.1268 20.0288C19.2105 19.8266 19.3333 19.6428 19.488 19.488C19.6428 19.3333 19.8266 19.2105 20.0288 19.1268C20.231 19.043 20.4478 18.9999 20.6667 19H27.3333C27.5522 18.9999 27.769 19.043 27.9712 19.1268C28.1734 19.2105 28.3572 19.3333 28.512 19.488C28.6667 19.6428 28.7895 19.8266 28.8732 20.0288C28.957 20.231 29.0001 20.4478 29 20.6667V40.6667C29.0001 40.8856 28.957 41.1023 28.8732 41.3045C28.7895 41.5068 28.6667 41.6905 28.512 41.8453C28.3572 42.0001 28.1734 42.1228 27.9712 42.2066C27.769 42.2903 27.5522 42.3334 27.3333 42.3333Z" fill="#0F0F21"/>
<path d="M40.6667 42.3334H34C33.7812 42.3335 33.5644 42.2904 33.3622 42.2067C33.1599 42.1229 32.9762 42.0002 32.8214 41.8454C32.6666 41.6906 32.5439 41.5069 32.4601 41.3046C32.3764 41.1024 32.3333 40.8856 32.3334 40.6667V7.33341C32.3333 7.11453 32.3764 6.89778 32.4601 6.69554C32.5439 6.49331 32.6666 6.30955 32.8214 6.15478C32.9762 6 33.1599 5.87724 33.3622 5.7935C33.5644 5.70976 33.7812 5.66669 34 5.66675H40.6667C40.8856 5.66669 41.1023 5.70976 41.3046 5.7935C41.5068 5.87724 41.6906 6 41.8453 6.15478C42.0001 6.30955 42.1229 6.49331 42.2066 6.69554C42.2904 6.89778 42.3334 7.11453 42.3334 7.33341V40.6667C42.3334 40.8856 42.2904 41.1024 42.2066 41.3046C42.1229 41.5069 42.0001 41.6906 41.8453 41.8454C41.6906 42.0002 41.5068 42.1229 41.3046 42.2067C41.1023 42.2904 40.8856 42.3335 40.6667 42.3334Z" fill="#0F0F21"/>
</svg>
