<svg width="48" height="48" viewBox="0 0 48 48" fill="none" xmlns="http://www.w3.org/2000/svg">
<path fill-rule="evenodd" clip-rule="evenodd" d="M4 24C4 12.9543 12.9543 4 24 4C35.0457 4 44 12.9543 44 24C44 35.0457 35.0457 44 24 44C12.9543 44 4 35.0457 4 24ZM26.2857 14.8571C26.2857 16.1195 25.2624 17.1429 24 17.1429C22.7376 17.1429 21.7143 16.1195 21.7143 14.8571C21.7143 13.5948 22.7376 12.5714 24 12.5714C25.2624 12.5714 26.2857 13.5948 26.2857 14.8571ZM24 21.1429C24.9468 21.1429 25.7143 21.9104 25.7143 22.8571V34.2857C25.7143 35.2325 24.9468 36 24 36C23.0532 36 22.2857 35.2325 22.2857 34.2857V22.8571C22.2857 21.9104 23.0532 21.1429 24 21.1429Z" fill="#0F0F21"/>
</svg>
