<svg width="48" height="48" viewBox="0 0 48 48" fill="none" xmlns="http://www.w3.org/2000/svg">
<path d="M37.4356 32.417C38.1881 25.7697 38.1881 19.0685 37.4356 12.4212C37.2002 10.342 34.5917 9.28875 32.7663 10.5358L25.798 15.2963C23.6014 16.7969 20.9373 17.6072 18.2003 17.6072H11.6981C10.7603 17.6072 10 18.3059 10 19.1678V25.6703C10 26.5322 10.7602 27.2309 11.6981 27.2309L18.2003 27.2309C20.9373 27.2309 23.6014 28.0412 25.798 29.5419L32.7662 34.3023C34.5917 35.5494 37.2002 34.4962 37.4356 32.417Z" fill="#0F0F21"/>
<path d="M18.2003 31.8387C18.2978 31.4885 18.2138 31.1164 17.9725 30.8308C17.7313 30.5452 17.3599 30.3781 16.9665 30.3781L13.5704 30.3781C13.088 30.3781 12.647 30.6286 12.4313 31.0251L10.7332 34.1463C10.4432 34.6793 10.6353 35.3274 11.1793 35.6517L14.803 37.8116C15.147 38.0166 15.5774 38.0569 15.9594 37.9197C16.3413 37.7826 16.6281 37.4848 16.7297 37.1197L18.2003 31.8387Z" fill="#0F0F21"/>
</svg>
