<svg width="48" height="48" viewBox="0 0 48 48" fill="none" xmlns="http://www.w3.org/2000/svg">
<path d="M32.8963 28.1632L29.9378 30.8835C28.4165 32.2097 26.6292 33.1951 24.6958 33.7736L25.4807 37.436C25.5208 37.623 25.6044 37.7979 25.7245 37.9467C25.8447 38.0955 25.9982 38.2139 26.1726 38.2925C26.347 38.371 26.5374 38.4074 26.7285 38.3988C26.9195 38.3902 27.1059 38.3368 27.2725 38.2428L32.035 35.5567C32.7053 35.1494 33.2289 34.5398 33.5303 33.8156C33.8316 33.0915 33.8952 32.2904 33.7118 31.5278L32.8963 28.1632ZM17.2001 19.5706L19.7473 16.5463L16.5707 15.7799C15.7984 15.5106 14.9548 15.5299 14.1956 15.8342C13.4365 16.1384 12.8131 16.7071 12.4406 17.4352L9.75742 22.1912C9.6634 22.3578 9.6099 22.5442 9.60123 22.7352C9.59256 22.9263 9.62897 23.1168 9.70751 23.2912C9.78606 23.4656 9.90453 23.6191 10.0534 23.7393C10.2022 23.8594 10.3772 23.9429 10.5643 23.9829L14.3115 24.7862C14.9327 22.8792 15.9132 21.1089 17.2001 19.5706Z" fill="#FF2D55"/>
<path d="M37.9341 10.9106C37.8791 10.7017 37.7696 10.5112 37.6169 10.3584C37.4642 10.2057 37.2736 10.0962 37.0647 10.0412C34.5631 9.39091 31.9286 9.46064 29.4649 10.2424C27.0012 11.0241 24.8084 12.4859 23.1393 14.4595L19.2324 19.0982C17.2807 21.426 16.0426 24.2678 15.6668 27.2822C15.6427 27.4675 15.6615 27.6558 15.7217 27.8326C15.7819 28.0095 15.8819 28.1702 16.014 28.3022L19.7946 32.0828C19.9077 32.1961 20.0422 32.286 20.1901 32.3473C20.338 32.4086 20.4966 32.4402 20.6567 32.4402C20.6919 32.4402 20.727 32.4384 20.7627 32.4354C23.8234 32.1825 26.7239 30.9608 29.0432 28.9478L33.5103 24.8403C35.491 23.1755 36.9582 20.9826 37.7413 18.5166C38.5244 16.0507 38.5913 13.413 37.9341 10.9106ZM30.7788 19.1474C30.417 19.1474 30.0634 19.0401 29.7625 18.8391C29.4617 18.6381 29.2273 18.3524 29.0888 18.0182C28.9504 17.6839 28.9141 17.3161 28.9847 16.9613C29.0553 16.6064 29.2295 16.2805 29.4853 16.0246C29.7412 15.7688 30.0671 15.5946 30.4219 15.524C30.7768 15.4534 31.1446 15.4897 31.4788 15.6281C31.8131 15.7666 32.0988 16.001 32.2998 16.3018C32.5008 16.6027 32.6081 16.9563 32.6081 17.3181C32.6079 17.8032 32.4151 18.2684 32.0721 18.6114C31.7291 18.9544 31.2639 19.1472 30.7788 19.1474Z" fill="#FF2D55"/>
</svg>
