<svg width="48" height="48" viewBox="0 0 48 48" fill="none" xmlns="http://www.w3.org/2000/svg">
<path d="M12 38.4C11.6848 38.4001 11.3727 38.3381 11.0814 38.2175C10.7902 38.0969 10.5256 37.9201 10.3027 37.6972C10.0799 37.4744 9.90308 37.2098 9.7825 36.9185C9.66192 36.6273 9.59989 36.3152 9.59998 36V26.4C9.59998 25.7635 9.85283 25.153 10.3029 24.7029C10.753 24.2529 11.3635 24 12 24C12.6365 24 13.2469 24.2529 13.697 24.7029C14.1471 25.153 14.4 25.7635 14.4 26.4V36C14.4001 36.3152 14.338 36.6273 14.2175 36.9185C14.0969 37.2098 13.9201 37.4744 13.6972 37.6972C13.4743 37.9201 13.2097 38.0969 12.9185 38.2175C12.6273 38.3381 12.3152 38.4001 12 38.4ZM24 38.4C23.6848 38.4001 23.3727 38.3381 23.0814 38.2175C22.7902 38.0969 22.5256 37.9201 22.3027 37.6972C22.0799 37.4744 21.9031 37.2098 21.7825 36.9185C21.6619 36.6273 21.5999 36.3152 21.6 36V12C21.6 11.3635 21.8528 10.753 22.3029 10.3029C22.753 9.85286 23.3635 9.6 24 9.6C24.6365 9.6 25.2469 9.85286 25.697 10.3029C26.1471 10.753 26.4 11.3635 26.4 12V36C26.4001 36.3152 26.338 36.6273 26.2175 36.9185C26.0969 37.2098 25.9201 37.4744 25.6972 37.6972C25.4743 37.9201 25.2097 38.0969 24.9185 38.2175C24.6273 38.3381 24.3152 38.4001 24 38.4ZM36 38.4C35.6848 38.4001 35.3727 38.3381 35.0814 38.2175C34.7902 38.0969 34.5256 37.9201 34.3027 37.6972C34.0799 37.4744 33.9031 37.2098 33.7825 36.9185C33.6619 36.6273 33.5999 36.3152 33.6 36V21.6C33.6 20.9635 33.8528 20.353 34.3029 19.9029C34.753 19.4529 35.3635 19.2 36 19.2C36.6365 19.2 37.2469 19.4529 37.697 19.9029C38.1471 20.353 38.4 20.9635 38.4 21.6V36C38.4001 36.3152 38.338 36.6273 38.2174 36.9185C38.0969 37.2098 37.9201 37.4744 37.6972 37.6972C37.4743 37.9201 37.2097 38.0969 36.9185 38.2175C36.6273 38.3381 36.3152 38.4001 36 38.4Z" fill="#0F0F21"/>
</svg>
