<svg width="48" height="48" viewBox="0 0 48 48" fill="none" xmlns="http://www.w3.org/2000/svg">
<g opacity="0.8">
<path d="M16.7742 26.2375C13.0329 26.2375 10 29.0902 10 32.6092V34.6283C10 35.9081 10.9861 36.9993 12.329 37.2056C20.0585 38.3926 27.9415 38.3926 35.671 37.2056C37.0139 36.9993 38 35.9081 38 34.6283V32.6092C38 29.0902 34.9671 26.2375 31.2258 26.2375H30.61C30.2768 26.2375 29.9456 26.2871 29.6288 26.3844L28.0653 26.8646C25.4237 27.6759 22.5763 27.6759 19.9347 26.8646L18.3712 26.3844C18.0544 26.2871 17.7232 26.2375 17.39 26.2375H16.7742Z" fill="#0F0F21"/>
<path d="M24 9.90417C20.2587 9.90417 17.2258 13.0382 17.2258 16.9042C17.2258 20.7702 20.2587 23.9042 24 23.9042C27.7413 23.9042 30.7742 20.7702 30.7742 16.9042C30.7742 13.0382 27.7413 9.90417 24 9.90417Z" fill="#0F0F21"/>
</g>
</svg>
