<svg width="48" height="48" viewBox="0 0 48 48" fill="none" xmlns="http://www.w3.org/2000/svg">
<path d="M31.0781 10.586C30.0782 9.58608 28.3846 9.91224 27.8276 11.2119L25.0144 17.7762C22.7031 17.0913 20.098 17.6607 18.2726 19.4861L16.1035 21.6552C15.6352 22.1235 15.6352 22.8828 16.1035 23.3512L19.5282 26.7758L10.3513 35.9527C9.88292 36.4211 9.88292 37.1804 10.3512 37.6487C10.8196 38.117 11.5789 38.117 12.0472 37.6487L21.2241 28.4718L24.6489 31.8966C25.1172 32.3649 25.8765 32.3649 26.3449 31.8966L28.514 29.7275C30.3394 27.902 30.9087 25.297 30.2239 22.9857L36.7881 20.1724C38.0878 19.6154 38.4139 17.9219 37.4141 16.922L31.0781 10.586Z" fill="#0F0F21"/>
</svg>
