<svg width="48" height="48" viewBox="0 0 48 48" fill="none" xmlns="http://www.w3.org/2000/svg">
<path fill-rule="evenodd" clip-rule="evenodd" d="M25 8.4115C24.3812 8.05424 23.6188 8.05424 23 8.4115L11 15.3397C10.3812 15.697 10 16.3572 10 17.0718V30.9282C10 31.6427 10.3812 32.3029 11 32.6602L23 39.5884C23.6188 39.9457 24.3812 39.9457 25 39.5884L37 32.6602C37.6188 32.3029 38 31.6427 38 30.9282V17.0718C38 16.3572 37.6188 15.697 37 15.3397L25 8.4115ZM24 32.1436C28.4183 32.1436 32 28.5618 32 24.1436C32 19.7253 28.4183 16.1436 24 16.1436C19.5817 16.1436 16 19.7253 16 24.1436C16 28.5618 19.5817 32.1436 24 32.1436Z" fill="#0F0F21"/>
</svg>
