<svg width="48" height="48" viewBox="0 0 48 48" fill="none" xmlns="http://www.w3.org/2000/svg">
<path d="M27.4189 10.7369C27.4189 10.4415 27.2425 10.1746 26.9707 10.0589C26.6989 9.94319 26.3843 10.001 26.1714 10.2057L23.5512 12.7251C19.6501 16.4762 16.3537 20.8091 13.7794 25.5697C13.7188 25.6767 13.6842 25.8004 13.6842 25.9322C13.6842 26.3392 14.0141 26.669 14.421 26.669H20.7726V37.2631C20.7726 37.5549 20.9448 37.8192 21.2117 37.9371C21.4786 38.0551 21.79 38.0044 22.0057 37.8079L23.178 36.7399C27.2818 33.0017 30.7644 28.6341 33.4953 23.8011L34.2204 22.5177C34.3493 22.2896 34.3474 22.0102 34.2153 21.7838C34.0833 21.5575 33.8409 21.4184 33.5789 21.4184H27.4189V10.7369Z" fill="#0F0F21"/>
</svg>
