<svg width="48" height="48" viewBox="0 0 48 48" fill="none" xmlns="http://www.w3.org/2000/svg">
<path d="M23.9999 27.0143C23.7589 27.0143 23.5222 26.9509 23.3133 26.8306L10.9544 19.6936C10.2975 19.3142 10.0725 18.474 10.452 17.8171C10.5725 17.6084 10.7458 17.4352 10.9544 17.3147L23.3133 10.1831C23.7385 9.93898 24.2614 9.93898 24.6866 10.1831L37.0455 17.3147C37.7024 17.6941 37.9274 18.5343 37.5479 19.1912C37.4274 19.3998 37.2541 19.5731 37.0455 19.6936L24.6866 26.8306C24.4777 26.9509 24.241 27.0143 23.9999 27.0143Z" fill="white"/>
<path d="M37.0455 22.8075L34.3483 21.2511L24.6866 26.8305C24.2616 27.0755 23.7383 27.0755 23.3133 26.8305L13.6516 21.2511L10.9544 22.8075C10.2975 23.1869 10.0725 24.0271 10.452 24.684C10.5725 24.8926 10.7458 25.0659 10.9544 25.1864L23.3133 32.3234C23.7383 32.5683 24.2616 32.5683 24.6866 32.3234L37.0455 25.1864C37.7024 24.807 37.9274 23.9668 37.5479 23.3099C37.4274 23.1013 37.2541 22.928 37.0455 22.8075Z" fill="#DFE5E9"/>
<path d="M37.0455 28.3004L34.3483 26.744L24.6866 32.3235C24.2616 32.5684 23.7383 32.5684 23.3133 32.3235L13.6516 26.744L10.9544 28.3004C10.2975 28.6798 10.0725 29.52 10.452 30.1769C10.5725 30.3856 10.7458 30.5588 10.9544 30.6794L23.3133 37.8163C23.7383 38.0613 24.2616 38.0613 24.6866 37.8163L37.0455 30.6794C37.7024 30.2999 37.9274 29.4598 37.5479 28.8028C37.4274 28.5942 37.2541 28.4209 37.0455 28.3004Z" fill="#0F0F21"/>
</svg>
