<svg width="44" height="44" viewBox="0 0 44 44" fill="none" xmlns="http://www.w3.org/2000/svg">
<path fill-rule="evenodd" clip-rule="evenodd" d="M22 36C29.732 36 36 29.732 36 22C36 14.268 29.732 8 22 8C14.268 8 8 14.268 8 22C8 29.732 14.268 36 22 36ZM30.1418 16.1414C29.6245 15.6241 28.7792 15.6212 28.2596 16.1408L19.2004 25.2L16.8133 22.8129C16.2892 22.2888 15.4455 22.2881 14.9256 22.8081L14.8085 22.9252C14.2912 23.4425 14.2884 24.288 14.8082 24.8079L18.2591 28.2588C18.7819 28.7815 19.6219 28.7784 20.142 28.2584L30.2587 18.1416C30.7733 17.6271 30.7789 16.7785 30.2589 16.2585L30.1418 16.1414Z" fill="#C7CACC"/>
</svg>
