<svg width="36" height="36" viewBox="0 0 36 36" fill="none" xmlns="http://www.w3.org/2000/svg">

<path fill-rule="evenodd" clip-rule="evenodd" d="M8.79169 18C8.79169 12.9144 12.9144 8.79169 18 8.79169C23.0856 8.79169 27.2084 12.9144 27.2084 18C27.2084 23.0856 23.0856 27.2084 18 27.2084C12.9144 27.2084 8.79169 23.0856 8.79169 18ZM18.8125 12.5834C18.8125 12.1346 18.4488 11.7709 18 11.7709C17.5513 11.7709 17.1875 12.1346 17.1875 12.5834V18C17.1875 18.2802 17.3318 18.5405 17.5694 18.689L20.8194 20.7203C21.1999 20.9581 21.7012 20.8424 21.939 20.4619C22.1768 20.0814 22.0612 19.5801 21.6806 19.3423L18.8125 17.5497V12.5834Z" fill="#C7CFD5"/>

</svg>
