<svg width="44" height="44" viewBox="0 0 44 44" fill="none" xmlns="http://www.w3.org/2000/svg">
<path fill-rule="evenodd" clip-rule="evenodd" d="M14.9013 10.9879C19.6248 10.5773 24.3751 10.5773 29.0987 10.9879L31.364 11.1848C33.5316 11.3732 35.2877 13.0227 35.6112 15.1743C36.2917 19.6994 36.2917 24.3007 35.6112 28.8258C35.5517 29.2217 35.4437 29.6005 35.2935 29.9564C35.194 30.1924 34.8868 30.2282 34.7145 30.0387L28.0824 22.7433C27.7827 22.4137 27.3168 22.2919 26.8942 22.4328L23.098 23.6982L17.5908 17.5027C17.385 17.2711 17.0927 17.1346 16.783 17.1255C16.4733 17.1164 16.1736 17.2355 15.9545 17.4546L8.58328 24.8258C8.35642 25.0526 7.96951 24.9082 7.95142 24.5879C7.77407 21.4471 7.91985 18.2926 8.38876 15.1743C8.71231 13.0227 10.4683 11.3732 12.6359 11.1848L14.9013 10.9879ZM25 17.5001C25 16.2574 26.0073 15.2501 27.25 15.2501C28.4926 15.2501 29.5 16.2574 29.5 17.5001C29.5 18.7427 28.4926 19.7501 27.25 19.7501C26.0073 19.7501 25 18.7427 25 17.5001Z" fill="#D0D7DA"/>
<path d="M8.44197 28.149C8.35894 28.2321 8.3195 28.3492 8.33604 28.4655C8.35313 28.5856 8.37071 28.7058 8.38876 28.8258C8.71231 30.9774 10.4683 32.6269 12.6359 32.8153L14.9013 33.0122C19.6248 33.4228 24.3751 33.4228 29.0987 33.0122L31.364 32.8153C32.001 32.7599 32.6024 32.5784 33.1424 32.295C33.347 32.1877 33.3814 31.9171 33.226 31.7461L27.0748 24.9798C26.9749 24.87 26.8196 24.8294 26.6787 24.8763L23.1057 26.0673C22.6788 26.2096 22.2081 26.0838 21.9091 25.7475L16.966 20.1865C16.8227 20.0252 16.5731 20.0179 16.4206 20.1704L8.44197 28.149Z" fill="#D0D7DA"/>
</svg>
