<svg width="44" height="44" viewBox="0 0 44 44" fill="none" xmlns="http://www.w3.org/2000/svg">
<path fill-rule="evenodd" clip-rule="evenodd" d="M8 22C8 14.268 14.268 8 22 8C29.732 8 36 14.268 36 22C36 29.732 29.732 36 22 36C14.268 36 8 29.732 8 22ZM23.2353 13.7647C23.2353 13.0825 22.6822 12.5294 22 12.5294C21.3178 12.5294 20.7647 13.0825 20.7647 13.7647V22C20.7647 22.4259 20.9841 22.8218 21.3453 23.0475L26.2865 26.1358C26.865 26.4973 27.6271 26.3215 27.9887 25.7429C28.3503 25.1644 28.1744 24.4023 27.5959 24.0407L23.2353 21.3153V13.7647Z" fill="#C7CACC"/>
</svg>
