<svg width="19" height="14" viewBox="0 0 19 14" fill="none" xmlns="http://www.w3.org/2000/svg">
<path d="M9.36921 4.92308C8.22216 4.92308 7.29229 5.85295 7.29229 7C7.29229 8.14705 8.22216 9.07692 9.36921 9.07692C10.5163 9.07692 11.4461 8.14705 11.4461 7C11.4461 5.85295 10.5163 4.92308 9.36921 4.92308Z" stroke="#8E9093" stroke-width="0.75"/>
<path fill-rule="evenodd" clip-rule="evenodd" d="M9.36921 1C6.95281 1 4.77968 1.97051 3.21378 3.17233C2.42981 3.77402 1.78653 4.44227 1.3352 5.09263C0.892463 5.73059 0.599976 6.40142 0.599976 7C0.599976 7.59858 0.892463 8.26941 1.3352 8.90737C1.78653 9.55773 2.42981 10.226 3.21378 10.8277C4.77968 12.0295 6.95281 13 9.36921 13C11.7856 13 13.9588 12.0295 15.5247 10.8277C16.3086 10.226 16.9519 9.55773 17.4032 8.90737C17.846 8.26941 18.1385 7.59858 18.1385 7C18.1385 6.40142 17.846 5.73059 17.4032 5.09263C16.9519 4.44227 16.3086 3.77402 15.5247 3.17233C13.9588 1.97051 11.7856 1 9.36921 1ZM5.90767 7C5.90767 5.08825 7.45746 3.53846 9.36921 3.53846C11.281 3.53846 12.8308 5.08825 12.8308 7C12.8308 8.91175 11.281 10.4615 9.36921 10.4615C7.45746 10.4615 5.90767 8.91175 5.90767 7Z" stroke="#8E9093" stroke-width="0.75"/>
</svg>
