<svg width="32" height="32" viewBox="0 0 32 32" fill="none" xmlns="http://www.w3.org/2000/svg">
<rect width="32" height="32" fill="white"/>
<path d="M12.038 4.15434C10.1955 3.94855 8.29141 3.94855 6.44891 4.15434C5.26356 4.28673 4.30507 5.21952 4.16529 6.41386C3.9449 8.29688 3.9449 10.1992 4.16529 12.0822C4.30507 13.2765 5.26356 14.2093 6.44891 14.3417C8.29141 14.5475 10.1955 14.5475 12.038 14.3417C13.2233 14.2093 14.1818 13.2765 14.3216 12.0822C14.542 10.1992 14.542 8.29688 14.3216 6.41386C14.1818 5.21952 13.2233 4.28673 12.038 4.15434Z" fill="#8E9093"/>
<path d="M12.038 17.6583C10.1955 17.4525 8.29141 17.4525 6.44891 17.6583C5.26356 17.7907 4.30507 18.7235 4.16529 19.9178C3.9449 21.8008 3.9449 23.7031 4.16529 25.5861C4.30507 26.7805 5.26356 27.7133 6.44891 27.8457C8.29141 28.0514 10.1955 28.0514 12.038 27.8457C13.2233 27.7133 14.1818 26.7805 14.3216 25.5861C14.542 23.7031 14.542 21.8008 14.3216 19.9178C14.1818 18.7235 13.2233 17.7907 12.038 17.6583Z" fill="#8E9093"/>
<path d="M25.5511 4.15434C23.7086 3.94855 21.8045 3.94855 19.962 4.15434C18.7767 4.28673 17.8182 5.21952 17.6784 6.41386C17.458 8.29688 17.458 10.1992 17.6784 12.0822C17.8182 13.2765 18.7767 14.2093 19.962 14.3417C21.8045 14.5475 23.7086 14.5475 25.5511 14.3417C26.7364 14.2093 27.6949 13.2765 27.8347 12.0822C28.0551 10.1992 28.0551 8.29688 27.8347 6.41386C27.6949 5.21952 26.7364 4.28673 25.5511 4.15434Z" fill="#8E9093"/>
<path d="M25.5511 17.6583C23.7086 17.4525 21.8045 17.4525 19.962 17.6583C18.7767 17.7907 17.8182 18.7235 17.6784 19.9178C17.458 21.8008 17.458 23.7031 17.6784 25.5861C17.8182 26.7805 18.7767 27.7133 19.962 27.8457C21.8045 28.0514 23.7086 28.0514 25.5511 27.8457C26.7364 27.7133 27.6949 26.7805 27.8347 25.5861C28.0551 23.7031 28.0551 21.8008 27.8347 19.9178C27.6949 18.7235 26.7364 17.7907 25.5511 17.6583Z" fill="#8E9093"/>
</svg>
