<svg width="44" height="44" viewBox="0 0 44 44" fill="none" xmlns="http://www.w3.org/2000/svg">
<path fill-rule="evenodd" clip-rule="evenodd" d="M8 22C8 14.268 14.268 8 22 8C29.732 8 36 14.268 36 22C36 29.732 29.732 36 22 36C14.268 36 8 29.732 8 22ZM23.6 15.6C23.6 16.4837 22.8837 17.2 22 17.2C21.1163 17.2 20.4 16.4837 20.4 15.6C20.4 14.7163 21.1163 14 22 14C22.8837 14 23.6 14.7163 23.6 15.6ZM22 20C22.6627 20 23.2 20.5373 23.2 21.2V29.2C23.2 29.8627 22.6627 30.4 22 30.4C21.3373 30.4 20.8 29.8627 20.8 29.2V21.2C20.8 20.5373 21.3373 20 22 20Z" fill="#D0D7DA"/>
</svg>
