<svg width="28" height="27" viewBox="0 0 28 27" fill="none" xmlns="http://www.w3.org/2000/svg">
<g clip-path="url(#clip0_34_3571)">
<path d="M14.6546 22.8182C14.6546 22.8182 16.1819 22.8182 16.1819 21.291C16.1819 19.7637 14.6546 15.1819 8.54552 15.1819C2.43643 15.1819 0.909157 19.7637 0.909157 21.291C0.909157 22.8182 2.43643 22.8182 2.43643 22.8182H14.6546ZM8.54552 12.3455C7.33035 12.3455 6.16494 11.8628 5.30569 11.0035C4.44643 10.1443 3.9637 8.97888 3.9637 7.7637C3.9637 6.54853 4.44643 5.38313 5.30569 4.52387C6.16494 3.66461 7.33035 3.18188 8.54552 3.18188C9.76069 3.18188 10.9261 3.66461 11.7854 4.52387C12.6446 5.38313 13.1273 6.54853 13.1273 7.7637C13.1273 8.97888 12.6446 10.1443 11.7854 11.0035C10.9261 11.8628 9.76069 12.3455 8.54552 12.3455Z" fill="#C7CFD5"/>
<path fill-rule="evenodd" clip-rule="evenodd" d="M18.6011 22.8182C18.8275 22.3414 18.9404 21.8186 18.931 21.2909C18.931 19.2214 17.8925 17.0909 15.9742 15.6094C16.9317 15.3144 17.9292 15.1702 18.931 15.1818C25.0401 15.1818 26.5674 19.7636 26.5674 21.2909C26.5674 22.8182 25.0401 22.8182 25.0401 22.8182H18.6011Z" fill="#C7CFD5"/>
<path d="M19.6948 12.3455C18.6821 12.3455 17.7109 11.9432 16.9949 11.2272C16.2788 10.5111 15.8766 9.53993 15.8766 8.52729C15.8766 7.51464 16.2788 6.54347 16.9949 5.82743C17.7109 5.11138 18.6821 4.70911 19.6948 4.70911C20.7074 4.70911 21.6786 5.11138 22.3946 5.82743C23.1107 6.54347 23.5129 7.51464 23.5129 8.52729C23.5129 9.53993 23.1107 10.5111 22.3946 11.2272C21.6786 11.9432 20.7074 12.3455 19.6948 12.3455Z" fill="#C7CFD5"/>
</g>
<defs>
<clipPath id="clip0_34_3571">
<rect width="26.1818" height="26.1818" fill="white" transform="translate(0.90918 0.727295)"/>
</clipPath>
</defs>
</svg>
