<svg width="26" height="26" viewBox="0 0 26 26" fill="none" xmlns="http://www.w3.org/2000/svg">
<path d="M13 0.54541C9.72033 0.54541 7.06161 3.29275 7.06161 6.68177C7.06161 10.0708 9.72033 12.8181 13 12.8181C16.2797 12.8181 18.9384 10.0708 18.9384 6.68177C18.9384 3.29275 16.2797 0.54541 13 0.54541Z" fill="#C7CFD5"/>
<path d="M6.66571 16.0909C3.38601 16.0909 0.727295 18.8382 0.727295 22.2272V25.0909L25.2727 25.0909V22.2272C25.2727 18.8382 22.614 16.0909 19.3343 16.0909H18.7945C18.5024 16.0909 18.2121 16.1386 17.9343 16.2323L16.5637 16.6948C14.2481 17.4761 11.752 17.4761 9.43632 16.6948L8.06571 16.2323C7.78798 16.1386 7.49766 16.0909 7.2055 16.0909H6.66571Z" fill="#C7CFD5"/>
</svg>
