<svg width="26" height="26" viewBox="0 0 26 26" fill="none" xmlns="http://www.w3.org/2000/svg">
<path d="M13.2244 10.2378L14.0622 6.00076C14.1011 5.80417 13.9885 5.60916 13.7988 5.54453L9.71052 4.15164" stroke="#626364" stroke-linecap="round"/>
<path d="M18.8808 11.5254C19.1925 12.6886 19.1522 13.918 18.7652 15.0583C18.3781 16.1986 17.6616 17.1985 16.7062 17.9315C15.7509 18.6646 14.5996 19.0979 13.398 19.1767C12.1964 19.2554 10.9984 18.9761 9.95558 18.374C8.91273 17.7719 8.07183 16.8741 7.53924 15.7941C7.00664 14.7141 6.80626 13.5004 6.96344 12.3065C7.12061 11.1126 7.62829 9.99218 8.42226 9.08683C9.21623 8.18148 10.2608 7.5319 11.424 7.22023" stroke="#626364" stroke-linecap="round"/>
</svg>
