<svg width="120" height="120" viewBox="0 0 120 120" fill="none" xmlns="http://www.w3.org/2000/svg">
<rect width="120" height="120" rx="16" fill="#F4F7F9"/>
<path fill-rule="evenodd" clip-rule="evenodd" d="M41.6586 27.0731C37.2403 27.0731 33.6586 30.6548 33.6586 35.0731V84.9268C33.6586 89.3451 37.2403 92.9268 41.6586 92.9268H78.3415C82.7598 92.9268 86.3415 89.3451 86.3415 84.9268V35.0731C86.3415 30.6548 82.7598 27.0731 78.3415 27.0731H41.6586ZM79.7561 35.8536H40.2439V44.6341H79.7561V35.8536ZM40.2439 53.4146H57.8049V62.1951H40.2439V53.4146ZM79.7561 53.4146H62.1952V62.1951H79.7561V53.4146ZM40.2439 70.9756H70.9757V84.6951H40.2439V70.9756ZM79.7561 70.9756H75.3659V84.1463H79.7561V70.9756Z" fill="#4FCDD6"/>
</svg>
