<svg width="120" height="120" viewBox="0 0 120 120" fill="none" xmlns="http://www.w3.org/2000/svg">
<rect width="120" height="120" rx="16" fill="#DCDEE0"/>
<g clip-path="url(#clip0_245_29808)">
<path d="M84.5853 24.8779H35.4145C29.6024 24.8949 24.8949 29.6024 24.8779 35.4145V66.5326L38.5053 52.9053C42.6759 48.9365 49.2263 48.9365 53.397 52.9053L63.4818 63.045L66.599 59.9279C70.7203 55.8305 77.377 55.8305 81.4984 59.9279L95.1219 73.5514V35.4145C95.1049 29.6024 90.3974 24.8949 84.5853 24.8779Z" fill="#ABADAE"/>
<path d="M53.397 52.9053C49.2263 48.9365 42.6759 48.9365 38.5052 52.9053L24.8779 66.5326V84.5853C24.8949 90.3974 29.6024 95.1049 35.4145 95.1219H84.5853C87.4481 95.1207 90.1871 93.9541 92.1716 91.8907L53.397 52.9053Z" fill="#F4F7F9"/>
<path d="M95.1219 73.5512L81.4984 59.9277C77.3771 55.8304 70.7205 55.8304 66.5991 59.9277L63.4819 63.0448L92.1564 91.8749C94.0604 89.9265 95.1251 87.3094 95.1219 84.5851V73.5512Z" fill="white"/>
</g>
<defs>
<clipPath id="clip0_245_29808">
<rect width="70.244" height="70.2439" fill="white" transform="translate(24.8779 24.8779)"/>
</clipPath>
</defs>
</svg>
