<svg width="120" height="120" viewBox="0 0 120 120" fill="none" xmlns="http://www.w3.org/2000/svg">
<rect width="120" height="120" rx="16" fill="#F4F7F9"/>
<path fill-rule="evenodd" clip-rule="evenodd" d="M41.6585 27.0731C37.2402 27.0731 33.6585 30.6548 33.6585 35.0731V90.949C33.6585 91.7689 34.591 92.2404 35.2513 91.7543L59.4072 73.9729C59.7598 73.7134 60.2402 73.7134 60.5928 73.9729L84.7486 91.7543C85.4089 92.2404 86.3414 91.7689 86.3414 90.949V35.0731C86.3414 30.6548 82.7597 27.0731 78.3414 27.0731H41.6585ZM79.7561 35.8536H40.2439V44.6341H79.7561V35.8536ZM40.2439 53.4146H57.8049V62.1951H40.2439V53.4146ZM79.7561 53.4146H62.1951V62.1951H79.7561V53.4146Z" fill="#FFCF40"/>
</svg>
